<?xml version="1.0" encoding="UTF-8" standalone="no"?>
<!-- Created with Inkscape (http://www.inkscape.org/) -->

<svg
   width="210mm"
   height="297mm"
   viewBox="0 0 210 297"
   version="1.1"
   id="svg1"
   inkscape:version="1.4.2 (ebf0e940, 2025-05-08)"
   sodipodi:docname="Clarity Blue.svg"
   xmlns:inkscape="http://www.inkscape.org/namespaces/inkscape"
   xmlns:sodipodi="http://sodipodi.sourceforge.net/DTD/sodipodi-0.dtd"
   xmlns="http://www.w3.org/2000/svg"
   xmlns:svg="http://www.w3.org/2000/svg">
  <sodipodi:namedview
     id="namedview1"
     pagecolor="#ffffff"
     bordercolor="#000000"
     borderopacity="0.25"
     inkscape:showpageshadow="2"
     inkscape:pageopacity="0.0"
     inkscape:pagecheckerboard="0"
     inkscape:deskcolor="#d1d1d1"
     inkscape:document-units="mm"
     inkscape:zoom="0.15504082"
     inkscape:cx="35.474528"
     inkscape:cy="677.24098"
     inkscape:window-width="1472"
     inkscape:window-height="895"
     inkscape:window-x="0"
     inkscape:window-y="61"
     inkscape:window-maximized="0"
     inkscape:current-layer="layer1" />
  <defs
     id="defs1" />
  <g
     inkscape:label="Layer 1"
     inkscape:groupmode="layer"
     id="layer1">
    <path
       id="path5"
       style="display:inline;fill:#005ec2;stroke-width:0.264583"
       inkscape:label="Blue"
       d="m 99.676407,238.84061 c 0.329123,-0.0633 0.805373,-0.0609 1.058343,0.005 0.25296,0.0662 -0.0163,0.118 -0.5984,0.11506 -0.582083,-0.003 -0.789053,-0.0571 -0.459943,-0.1204 z m 7.807163,0.004 c 0.25743,-0.0671 0.61462,-0.0627 0.79375,0.01 0.17914,0.0725 -0.0315,0.12736 -0.46805,0.12197 -0.43657,-0.005 -0.58313,-0.0647 -0.3257,-0.13177 z m -11.762463,-0.26198 c 0.191,-0.0764 0.41921,-0.067 0.50712,0.0209 0.0879,0.0879 -0.0684,0.15045 -0.34726,0.13896 -0.30823,-0.0127 -0.37092,-0.0754 -0.15986,-0.15985 z m 15.466633,-0.003 c 0.25743,-0.0671 0.61462,-0.0627 0.79375,0.01 0.17913,0.0725 -0.0315,0.12737 -0.46806,0.12198 -0.43656,-0.005 -0.58312,-0.0647 -0.32569,-0.13178 z m -17.599833,-0.25646 c 0.1819,-0.0734 0.47956,-0.0734 0.66146,0 0.1819,0.0734 0.0331,0.13345 -0.33073,0.13345 -0.3638,0 -0.51263,-0.06 -0.33073,-0.13345 z m 17.330213,-0.0207 c -0.90951,-0.0517 -1.65365,-0.20732 -1.65365,-0.3459 0,-0.13962 -0.99423,-0.25196 -2.23005,-0.25196 -1.72621,0 -2.32943,-0.0994 -2.66985,-0.43978 -0.28344,-0.28345 -0.50179,-0.34109 -0.61421,-0.16216 -0.21508,0.34234 -3.48172,0.61765 -3.48172,0.29344 0,-0.12857 0.32742,-0.34993 0.72761,-0.49191 0.40018,-0.14198 0.93434,-0.37716 1.18703,-0.52262 0.25269,-0.14546 0.71305,-0.26447 1.02303,-0.26447 0.46895,0 0.54078,-0.11938 0.42772,-0.71083 -0.20216,-1.0575 0.0478,-1.53861 0.49395,-0.95059 0.19644,0.25894 0.36095,0.67916 0.36558,0.93382 0.0114,0.62785 0.72071,0.58627 1.12815,-0.0661 0.39617,-0.63436 0.73235,-0.68618 0.73235,-0.11289 0,0.25404 0.18046,0.38152 0.46302,0.32711 0.67002,-0.12904 0.56923,-0.86059 -0.13229,-0.96022 -0.86754,-0.12321 -0.72886,-0.54812 0.32223,-0.98729 1.13019,-0.47222 1.19912,-0.47322 1.19912,-0.0174 0,0.47909 1.06596,0.75079 1.50759,0.38427 0.5641,-0.46816 0.39517,-0.75028 -0.44926,-0.75028 -0.88955,0 -1.05056,-0.49914 -0.37797,-1.17173 0.51176,-0.51176 0.66938,-0.52893 0.48676,-0.053 -0.0766,0.1995 0.0424,0.43243 0.26441,0.51761 0.44481,0.17069 0.80387,-0.20959 0.56415,-0.59748 -0.32964,-0.53335 0.43018,-0.55076 1.09837,-0.0252 0.49887,0.39241 0.92008,0.51002 1.42747,0.39858 0.39694,-0.0872 0.79741,-0.0325 0.89287,0.12198 0.2805,0.45387 1.76922,0.32671 2.14189,-0.18294 0.20488,-0.2802 0.68652,-0.46329 1.21979,-0.46371 0.69125,-5.3e-4 0.88147,-0.10994 0.88235,-0.50749 5.3e-4,-0.27874 0.16194,-0.56041 0.35849,-0.62593 0.25799,-0.086 0.3079,0.0367 0.17949,0.44134 -0.15191,0.47862 -0.0711,0.56048 0.55332,0.56048 0.40217,0 1.18625,0.31534 1.74242,0.70076 1.02421,0.70978 1.61272,0.69703 1.01597,-0.022 -0.27216,-0.32793 -0.20232,-0.41951 0.42531,-0.55766 1.2873,-0.28334 1.36909,-0.33732 1.45804,-0.9621 0.049,-0.34445 0.30448,-0.65034 0.58829,-0.70447 0.39738,-0.0758 0.45988,0.006 0.30071,0.39417 -0.64936,1.58323 -0.2176,1.88336 1.22828,0.8538 0.66771,-0.47545 0.8934,-0.51471 1.4641,-0.25468 0.87759,0.39986 1.08394,0.16779 0.46194,-0.51951 -0.35656,-0.394 -0.68108,-0.50071 -1.16695,-0.38374 -0.64287,0.15477 -0.64932,0.14527 -0.14387,-0.21199 0.68207,-0.48211 3.02816,-0.74022 3.65907,-0.40257 0.26801,0.14343 0.56461,0.18347 0.65912,0.089 0.26558,-0.26559 -1.03628,-1.13768 -1.51353,-1.01388 -0.23288,0.0604 -0.64937,-0.056 -0.92555,-0.25862 -0.48649,-0.35697 -0.48392,-0.37322 0.0823,-0.5213 0.38038,-0.0995 0.63682,-0.0164 0.73439,0.23785 0.12244,0.31905 0.26536,0.28224 0.7795,-0.20076 0.61623,-0.57892 0.63744,-0.58069 1.00105,-0.0834 0.20432,0.27942 0.31872,0.59341 0.25423,0.69777 -0.17535,0.28371 1.15587,1.07915 1.47546,0.88162 0.15192,-0.0939 0.27622,-0.39622 0.27622,-0.67185 0,-0.61403 1.59862,-1.43582 2.33713,-1.20142 0.62116,0.19714 0.96927,1.20463 0.41623,1.20463 -0.62381,0 -0.41461,0.46113 0.28935,0.63781 0.3638,0.0913 0.66146,0.28984 0.66146,0.44118 0,0.15133 0.11083,0.20665 0.2463,0.12293 0.13546,-0.0837 0.32109,-0.0312 0.41249,0.11668 0.0914,0.14789 -0.0194,0.2689 -0.2463,0.2689 -0.22687,0 -0.41249,0.17057 -0.41249,0.37904 0,0.46627 -0.72762,0.71157 -2.46035,0.82943 -1.43495,0.0976 -1.67141,0.23292 -1.81692,1.03969 -0.0686,0.38011 -0.57558,0.69956 -1.80696,1.13846 -1.07328,0.38255 -1.74629,0.50619 -1.80452,0.33152 -0.1369,-0.41071 -2.31295,-0.34153 -2.66675,0.0848 -0.16585,0.19984 -0.23018,0.54931 -0.14296,0.77662 0.1178,0.30698 -0.10219,0.48691 -0.85533,0.69956 -2.15251,0.60776 -4.31719,1.01386 -4.1746,0.78315 0.0821,-0.13278 0.31374,-0.24142 0.51485,-0.24142 0.2011,0 0.42084,-0.0893 0.48829,-0.19844 0.0675,-0.10914 -0.40176,-0.15668 -1.04271,-0.10565 -0.92503,0.0736 -1.16538,0.19396 -1.16538,0.58333 0,0.54423 -1.13375,0.8714 -3.10801,0.89688 -0.618,0.008 -1.12401,0.0997 -1.12448,0.20383 -5.2e-4,0.10413 -0.62592,0.27841 -1.3899,0.3873 -1.36992,0.19525 -1.3763,0.20036 -0.46302,0.37116 l 0.92604,0.17318 -0.92604,-0.0161 c -0.50933,-0.009 -1.67018,-0.0584 -2.57969,-0.11009 z m 6.81302,-1.66449 c 0,-0.31675 -0.74629,-0.65652 -0.96395,-0.43886 -0.23169,0.23169 0.16131,0.71174 0.58269,0.71174 0.20969,0 0.38126,-0.1228 0.38126,-0.27288 z m -1.45521,-0.25628 c 0.0899,-0.14552 0.0445,-0.26459 -0.10106,-0.26459 -0.14552,0 -0.33817,0.11907 -0.4281,0.26459 -0.0899,0.14552 -0.0445,0.26458 0.10106,0.26458 0.14552,0 0.33817,-0.11906 0.4281,-0.26458 z m -7.54062,-0.95435 c 0,-0.0572 -0.1786,-0.10399 -0.39688,-0.10399 -0.21828,0 -0.39687,0.11533 -0.39687,0.25628 0,0.14096 0.17859,0.18775 0.39687,0.10399 0.21828,-0.0838 0.39688,-0.19909 0.39688,-0.25628 z m 2.77812,0.1606 c -0.0899,-0.14552 -0.28258,-0.26459 -0.4281,-0.26459 -0.14552,0 -0.191,0.11907 -0.10106,0.26459 0.0899,0.14552 0.28258,0.26458 0.4281,0.26458 0.14552,0 0.191,-0.11906 0.10106,-0.26458 z m 13.62604,-0.91043 c 0,-0.0642 -0.11906,-0.19026 -0.26458,-0.2802 -0.14552,-0.0899 -0.26458,-0.0374 -0.26458,0.11668 0,0.15411 0.11906,0.2802 0.26458,0.2802 0.14552,0 0.26458,-0.0525 0.26458,-0.11668 z m -13.49375,-1.20624 c 0,-0.14552 -0.11906,-0.26458 -0.26458,-0.26458 -0.14552,0 -0.26458,0.11906 -0.26458,0.26458 0,0.14552 0.11906,0.26458 0.26458,0.26458 0.14552,0 0.26458,-0.11906 0.26458,-0.26458 z m 1.35269,-0.86982 c -0.21608,-0.21607 -0.29435,-0.18646 -0.29435,0.11135 0,0.22313 0.0868,0.49251 0.19292,0.59862 0.10611,0.10611 0.23857,0.056 0.29435,-0.11135 0.0558,-0.16735 -0.031,-0.43673 -0.19292,-0.59862 z m 18.69136,-0.60558 c -0.2604,-0.2604 -0.72946,0.13935 -0.72946,0.62167 0,0.40388 0.0348,0.40315 0.44727,-0.009 0.246,-0.246 0.37298,-0.52156 0.28219,-0.61236 z m 0.85804,-0.75794 c 0,-0.2097 -0.10659,-0.44714 -0.23686,-0.52765 -0.27237,-0.16833 -0.60078,0.51224 -0.36227,0.75075 0.2839,0.2839 0.59913,0.16652 0.59913,-0.2231 z m 2.06375,-2.05291 c 0.35683,-0.35683 0.41953,-0.74386 0.11906,-0.73495 -0.10914,0.003 -0.49609,0.23871 -0.8599,0.52328 -0.61854,0.48383 -0.62626,0.51779 -0.11906,0.52329 0.29832,0.003 0.68527,-0.13699 0.8599,-0.31162 z m -42.611153,8.87352 c 0.1819,-0.0734 0.47956,-0.0734 0.66146,0 0.1819,0.0734 0.0331,0.13345 -0.33073,0.13345 -0.3638,0 -0.51263,-0.06 -0.33073,-0.13345 z m 23.299873,-0.006 c 0.191,-0.0764 0.4192,-0.067 0.50712,0.0209 0.0879,0.0879 -0.0683,0.15045 -0.34727,0.13897 -0.30822,-0.0127 -0.37091,-0.0754 -0.15985,-0.15986 z m -24.870833,-0.26389 c 0.191,-0.0764 0.4192,-0.067 0.50712,0.0209 0.0879,0.0879 -0.0684,0.15045 -0.34727,0.13896 -0.30822,-0.0127 -0.37092,-0.0754 -0.15985,-0.15985 z m 3.43958,0 c 0.191,-0.0764 0.4192,-0.067 0.50712,0.0209 0.0879,0.0879 -0.0684,0.15045 -0.34727,0.13896 -0.30822,-0.0127 -0.37091,-0.0754 -0.15985,-0.15985 z m 22.754173,0 c 0.191,-0.0764 0.4192,-0.067 0.50712,0.0209 0.0879,0.0879 -0.0684,0.15045 -0.34727,0.13896 -0.30822,-0.0127 -0.37092,-0.0754 -0.15985,-0.15985 z m -24.341673,-0.26459 c 0.191,-0.0764 0.4192,-0.067 0.50712,0.0209 0.0879,0.0879 -0.0684,0.15046 -0.34727,0.13897 -0.30822,-0.0127 -0.37091,-0.0754 -0.15985,-0.15985 z m 26.193753,0 c 0.191,-0.0764 0.4192,-0.067 0.50712,0.0209 0.0879,0.0879 -0.0684,0.15046 -0.34727,0.13897 -0.30822,-0.0127 -0.37091,-0.0754 -0.15985,-0.15985 z m 3.43958,-0.79375 c 0.191,-0.0764 0.41921,-0.067 0.50712,0.0209 0.0879,0.0879 -0.0684,0.15046 -0.34726,0.13897 -0.30823,-0.0127 -0.37092,-0.0754 -0.15986,-0.15985 z m -21.32651,-0.38149 c 0.0667,-0.2001 0.20064,-0.33404 0.29765,-0.29766 0.2346,0.088 0.17086,0.29284 -0.15434,0.49609 -0.14552,0.0909 -0.21001,0.002 -0.14331,-0.19843 z m 32.48862,-4.03967 c 0,-0.0572 0.18478,-0.17489 0.41062,-0.26155 0.23546,-0.0904 0.34166,-0.046 0.24897,0.10398 -0.15538,0.25141 -0.65959,0.37186 -0.65959,0.15757 z m -22.10304,-1.88258 c -0.54129,-0.44236 -0.65299,-0.64318 -0.3614,-0.64975 0.43325,-0.01 1.47721,0.95758 1.26377,1.17102 -0.0654,0.0654 -0.4715,-0.16914 -0.90237,-0.52127 z m 9.40304,0.39907 c 0,-0.14552 0.12609,-0.26459 0.2802,-0.26459 0.15411,0 0.20662,0.11907 0.11668,0.26459 -0.0899,0.14552 -0.21603,0.26458 -0.2802,0.26458 -0.0642,0 -0.11668,-0.11906 -0.11668,-0.26458 z m 17.52865,-1.35435 c -0.47294,-0.13655 -0.8599,-0.36394 -0.8599,-0.5053 0,-0.14136 -0.18732,-0.25702 -0.41627,-0.25702 -0.45111,0 -0.42901,-0.90983 0.023,-0.94818 1.05219,-0.0893 2.7745,-0.76169 2.7745,-1.08322 0,-0.20959 0.1031,-0.31736 0.2291,-0.23949 0.29492,0.18227 0.0534,1.47714 -0.27556,1.47714 -0.13714,0 -0.17577,0.11906 -0.0858,0.26459 0.22832,0.36943 0.67552,0.33154 0.59531,-0.0504 -0.0364,-0.17326 0.14221,-0.36058 0.39687,-0.41627 0.75188,-0.16443 0.58246,0.9528 -0.19843,1.3086 -0.36381,0.16575 -0.66146,0.40133 -0.66146,0.52349 0,0.27093 -0.39325,0.25183 -1.52136,-0.0739 z m 1.37036,-0.79257 c -0.18554,-0.30022 -1.09705,-0.30495 -1.2814,-0.007 -0.22374,0.36201 0.0692,0.50038 0.77407,0.36564 0.35869,-0.0686 0.58699,-0.23012 0.50733,-0.359 z m 4.38433,-1.94482 c 0,-0.0676 0.26789,-0.26572 0.59531,-0.44019 0.53981,-0.28763 0.56146,-0.27617 0.23219,0.12299 -0.3381,0.40984 -0.8275,0.59745 -0.8275,0.3172 z m -3.04004,-0.93966 c 0.0914,-0.1479 0.27702,-0.2004 0.41249,-0.11668 0.36699,0.22681 0.29855,0.38558 -0.16619,0.38558 -0.22687,0 -0.33771,-0.12101 -0.2463,-0.2689 z m -30.82663,-0.60052 c 0,-0.8359 -0.79348,-1.52683 -1.74842,-1.52245 -2.15822,0.01 -6.8055,-0.52617 -7.16773,-0.82679 -0.22573,-0.18734 -0.76415,-0.30352 -1.196493,-0.25817 -0.55916,0.0587 -0.89765,-0.0768 -1.17256,-0.46932 -0.21256,-0.30347 -0.6628,-0.55177 -1.00053,-0.55177 -0.33773,0 -0.76667,-0.18389 -0.9532,-0.40864 -0.23517,-0.28336 -0.57491,-0.35685 -1.1082,-0.23972 -0.89297,0.19613 -2.29884,-0.302 -2.79964,-0.99198 -0.23054,-0.31762 -0.68815,-0.47632 -1.37345,-0.47632 -0.56524,0 -1.1013,-0.11907 -1.19124,-0.26459 -0.0899,-0.14552 -0.56047,-0.26458 -1.04564,-0.26458 -0.53543,0 -0.94128,-0.15417 -1.03265,-0.39228 -0.10767,-0.28058 -0.37781,-0.34682 -0.94874,-0.23263 -0.69147,0.13829 -0.83454,0.0641 -1.06974,-0.5545 -0.23501,-0.61811 -0.37573,-0.69125 -1.04656,-0.54391 -0.64074,0.14073 -0.8521,0.0526 -1.21972,-0.50843 -0.26851,-0.4098 -0.69099,-0.67867 -1.0664,-0.67867 -0.35867,0 -0.74619,-0.23257 -0.9159,-0.54969 -0.19095,-0.35678 -0.44574,-0.49153 -0.72604,-0.38396 -0.2701,0.10364 -0.58834,-0.0417 -0.84963,-0.38814 -0.29154,-0.38651 -0.74561,-0.56693 -1.5028,-0.59712 -0.65178,-0.026 -1.04136,-0.15706 -0.97567,-0.32824 0.16409,-0.42761 -0.90642,-1.45701 -1.5152,-1.45701 -0.35393,0 -0.62546,-0.26631 -0.80933,-0.79375 -0.2059,-0.59066 -0.44256,-0.79375 -0.92491,-0.79375 -0.35651,0 -0.91041,-0.27482 -1.23089,-0.61071 -0.94663,-0.99217 -2.59652,-2.14797 -3.47164,-2.432 -0.44836,-0.14552 -0.92373,-0.51157 -1.05638,-0.81345 -0.13265,-0.30187 -0.57913,-0.74282 -0.99219,-0.97988 -0.41305,-0.23706 -0.75101,-0.65623 -0.75101,-0.93149 0,-0.50362 -1.00672,-1.62281 -1.23792,-1.37622 -0.0682,0.0728 -0.40836,-0.33882 -0.75587,-0.91461 -0.48878,-0.80987 -0.79885,-1.04949 -1.36954,-1.05834 -0.55751,-0.009 -0.73771,-0.14069 -0.73771,-0.5406 0,-0.81434 -0.9244,-2.02055 -1.42639,-1.86123 -0.31874,0.10117 -0.51592,-0.13661 -0.75889,-0.91511 -0.18054,-0.57848 -0.32826,-1.2352 -0.32826,-1.45937 0,-0.22418 -0.325,-0.53116 -0.72222,-0.68218 -0.84902,-0.3228 -1.12027,-0.68378 -1.12581,-1.49825 -0.002,-0.32742 -0.24218,-0.83344 -0.53322,-1.12448 -0.29104,-0.29104 -0.52917,-0.64449 -0.52917,-0.78545 0,-0.14095 -0.14883,-0.19929 -0.33073,-0.12963 -0.21346,0.0817 -0.51059,-0.43716 -0.83802,-1.46351 -0.37953,-1.18966 -0.63085,-1.59016 -0.99786,-1.59016 -0.59811,0 -0.71185,-0.26395 -1.66935,-3.87404 -0.0827,-0.31171 -0.39415,-0.63051 -0.69216,-0.70844 -0.37822,-0.0989 -0.5221,-0.32726 -0.47645,-0.75617 0.0765,-0.71884 -0.48287,-2.84867 -0.87326,-3.32494 -0.14842,-0.18106 -0.21282,-0.62755 -0.14312,-0.99218 0.0982,-0.51354 0.0169,-0.66298 -0.3607,-0.66298 -0.3161,0 -0.54435,-0.25575 -0.64936,-0.72761 -0.0891,-0.40018 -0.21402,-0.92214 -0.2777,-1.15992 -0.0637,-0.23777 -0.22642,-1.40234 -0.36164,-2.58794 -0.14858,-1.30272 -0.4071,-2.31686 -0.65338,-2.56314 -0.22413,-0.22414 -0.40752,-0.63012 -0.40752,-0.90218 0,-0.27205 -0.11847,-0.56787 -0.26326,-0.65735 -0.14479,-0.0895 -0.25897,-0.543 -0.25373,-1.0078 0.005,-0.46481 -0.0891,-2.21432 -0.20974,-3.88781 -0.23232,-3.22376 -0.21213,-13.60481 0.0303,-15.61042 0.0792,-0.65484 0.18798,-1.60734 0.24179,-2.11666 0.0538,-0.50933 0.23763,-1.18611 0.4085,-1.50396 0.17087,-0.31786 0.31067,-0.81114 0.31067,-1.09618 0,-0.28504 0.16005,-0.57966 0.35565,-0.65472 0.25142,-0.0965 0.4013,-0.94265 0.51142,-2.88733 0.0857,-1.51298 0.27459,-3.04188 0.4198,-3.39757 0.14521,-0.35569 0.33405,-0.97412 0.41966,-1.37431 0.0856,-0.40018 0.31923,-0.7276 0.51917,-0.7276 0.40539,0 0.76559,-0.71343 0.54248,-1.07444 -0.0792,-0.12812 0.0395,-0.58771 0.26372,-1.02132 0.22423,-0.43361 0.40769,-1.02701 0.40769,-1.31866 0,-0.29165 0.28812,-0.8184 0.64026,-1.17054 0.41896,-0.41896 0.70101,-1.08616 0.81599,-1.93026 0.26851,-1.97106 0.35461,-2.14164 1.16258,-2.30323 0.62815,-0.12564 0.8001,-0.34486 1.05051,-1.3393 0.16467,-0.65399 0.29941,-1.4402 0.29941,-1.74714 0,-0.37793 0.2477,-0.64441 0.76744,-0.82559 0.58478,-0.20385 0.80813,-0.48444 0.93841,-1.17886 0.10259,-0.5469 0.43053,-1.08141 0.82006,-1.33663 0.357,-0.23392 0.64909,-0.53171 0.64909,-0.66175 0,-0.23314 0.74137,-1.14954 2.2011,-2.72076 0.41025,-0.44158 0.81309,-1.13882 0.89521,-1.54944 0.10492,-0.52458 0.40833,-0.85479 1.02037,-1.11052 0.64962,-0.27143 0.89288,-0.55445 0.95688,-1.11328 0.0616,-0.53816 0.32178,-0.86116 0.92316,-1.1462 0.46055,-0.21828 0.99633,-0.75406 1.19063,-1.19062 0.24877,-0.55896 0.56922,-0.81859 1.08329,-0.87771 0.49725,-0.0572 0.8614,-0.33801 1.14206,-0.88073 0.23862,-0.46145 0.81807,-0.96645 1.37681,-1.1999 0.53062,-0.22171 1.49198,-0.86717 2.13634,-1.43436 0.65453,-0.57615 1.44704,-1.03126 1.79577,-1.03126 0.39039,0 0.62421,-0.15534 0.62421,-0.41471 0,-0.29429 -0.15363,-0.36594 -0.52917,-0.24675 -0.30355,0.0963 -0.52916,0.0475 -0.52916,-0.11446 0,-0.15533 0.28492,-0.28241 0.63315,-0.28241 0.34823,0 0.69738,-0.16737 0.77587,-0.37193 0.0785,-0.20456 0.50659,-0.45185 0.95132,-0.54952 0.44472,-0.0977 0.87406,-0.28354 0.95408,-0.41301 0.2561,-0.41438 2.79202,-1.57596 3.44056,-1.57596 0.34435,0 0.95965,-0.30964 1.36732,-0.68809 0.89532,-0.83113 1.7833,-1.3044 2.89715,-1.54412 0.47991,-0.103281 0.88608,-0.382316 0.95826,-0.658314 0.0697,-0.266438 0.46325,-0.548087 0.8868,-0.634616 3.58568,-0.732515 5.48034,-1.248799 6.76675,-1.843897 0.82902,-0.383506 1.84105,-0.691338 2.24896,-0.684067 0.40791,0.0073 1.27743,-0.126034 1.93228,-0.296228 0.65484,-0.170193 1.49119,-0.329266 1.85855,-0.353493 0.36736,-0.02424 1.020383,-0.321289 1.451153,-0.660133 0.6457,-0.507908 1.03944,-0.601824 2.24249,-0.534879 0.8026,0.04466 1.61618,-0.01754 1.80795,-0.13824 0.19179,-0.120689 1.20382,-0.260374 2.24896,-0.310406 1.04515,-0.05003 1.97568,-0.09754 2.06785,-0.105577 0.0922,-0.008 0.22985,-0.252733 0.30596,-0.543774 0.17541,-0.670756 1.23863,-0.726387 1.26416,-0.06615 0.014,0.360979 0.083,0.327821 0.31312,-0.150458 0.1954,-0.406059 0.45772,-0.570984 0.77585,-0.487791 0.27338,0.07149 0.48062,-0.01561 0.48062,-0.201996 0,-0.417179 3.39475,-0.336161 4.21063,0.100488 0.46079,0.246603 0.59083,0.218496 0.73569,-0.159009 0.10029,-0.261342 0.0417,-0.503319 -0.13621,-0.562626 -0.17171,-0.05723 -0.31219,-0.287311 -0.31219,-0.511283 0,-0.323525 -0.0779,-0.342546 -0.37917,-0.09254 -0.29769,0.247063 -0.5251,0.21906 -1.05833,-0.130323 -1.18045,-0.773459 -0.63695,-1.291669 0.97371,-0.928407 0.65563,0.147871 1.18272,0.08632 1.81804,-0.212291 0.49209,-0.231293 1.35976,-0.423579 1.92815,-0.427305 1.5087,-0.0099 1.48779,-0.567385 -0.0298,-0.794522 -1.6071,-0.240533 -1.72693,-0.322151 -1.39193,-0.948095 0.3019,-0.564107 0.94769,-0.686967 1.10651,-0.210508 0.12125,0.363765 1.46421,0.548246 1.66195,0.228301 0.20658,-0.334261 -1.40921,-1.39851 -1.8604,-1.22537 -0.21312,0.08178 -0.38749,0.07626 -0.38749,-0.01228 0,-0.289084 0.91503,-0.86373 1.38906,-0.872345 0.60653,-0.01103 0.58446,-0.31184 -0.0854,-1.163359 -0.68585,-0.871927 -0.8099,-0.869162 -1.36768,0.03047 -0.24811,0.400183 -0.45428,0.586124 -0.45816,0.413203 -0.004,-0.172919 -0.37999,-0.7087 -0.83582,-1.190625 -0.45584,-0.481923 -0.74647,-0.727395 -0.64584,-0.545494 0.10061,0.181901 0.0707,0.330729 -0.0664,0.330729 -0.13714,0 -0.3144,-0.248801 -0.39392,-0.552889 -0.1107,-0.423312 -0.27594,-0.511202 -0.70502,-0.375018 -0.5345,0.169648 -1.32879,-0.226687 -1.32879,-0.663043 0,-0.434314 4.27187,-0.863148 5.17559,-0.519555 0.39812,0.151366 0.61319,0.156015 0.52376,0.01132 -0.0834,-0.135025 -0.0447,-0.311672 0.0862,-0.392547 0.24346,-0.150471 4.87945,0.75995 5.34969,1.050576 0.50406,0.311523 3.82662,1.188442 4.9028,1.293987 0.69589,0.06825 1.3546,0.352893 1.82457,0.788448 0.40452,0.374901 0.89481,0.681638 1.08952,0.681638 0.33031,0 2.56034,1.035367 4.06662,1.888069 3.82889,2.167522 5.17713,4.407667 4.22766,7.024394 -0.14864,0.409654 -0.98909,1.399672 -1.86767,2.200037 -0.87857,0.800364 -1.63368,1.693333 -1.67802,1.984375 -0.0492,0.323088 -0.24936,0.498858 -0.51393,0.451339 -0.2463,-0.04423 -0.55442,0.187952 -0.71389,0.537956 -0.15431,0.33868 -0.63191,0.771303 -1.06134,0.961382 -0.42942,0.190081 -0.9126,0.602841 -1.07374,0.917251 -0.53076,1.03562 -1.86118,2.25788 -2.28192,2.09642 -0.26132,-0.10027 -0.35912,-0.0282 -0.28074,0.20695 0.0661,0.19845 -0.17931,0.61852 -0.54548,0.93348 l -0.66575,0.57265 -0.4363,-1.28881 c -0.23997,-0.70885 -0.66287,-1.54498 -0.93978,-1.85807 -0.76942,-0.86996 -3.9631,-2.237127 -6.3243,-2.707337 -5.79652,-1.154316 -7.8314,-1.335453 -14.94896,-1.330703 -7.53885,0.005 -10.518193,0.34408 -16.368253,1.86269 -15.71379,4.07913 -29.70076,15.58777 -36.80913,30.28699 -0.5497,1.13671 -1.0922,1.98317 -1.20554,1.88103 -0.11335,-0.10214 -0.12836,-0.0497 -0.0333,0.11656 0.095,0.16624 -0.10871,0.94015 -0.45269,1.71979 -0.98816,2.23962 -2.50265,6.98621 -3.19596,10.01648 -0.34959,1.52797 -0.65148,2.65906 -0.67087,2.51354 -0.0194,-0.14552 -0.15049,0.0237 -0.29134,0.37615 -0.14359,0.35926 -0.15474,0.70794 -0.0254,0.79375 0.1283,0.0851 0.0653,1.32738 -0.14194,2.79885 -0.4581,3.25264 -0.51751,11.73121 -0.10825,15.44989 1.09169,9.91952 4.9328,20.35648 10.34764,28.11634 8.70277,12.4717 23.21051,22.44824 38.21374,26.27845 6.387393,1.63066 8.460503,1.85925 16.694443,1.84082 6.81467,-0.0153 7.71576,-0.0725 11.24479,-0.71381 8.69466,-1.58014 16.25507,-4.54479 23.81694,-9.3393 10.11575,-6.41378 18.76855,-16.25095 23.95733,-27.23656 2.58309,-5.46888 4.84231,-12.102 5.69377,-16.71706 0.19554,-1.05985 0.46214,-1.83147 0.60276,-1.74457 0.1441,0.0891 0.19029,-0.0807 0.10779,-0.39615 -0.0794,-0.30359 -0.0407,-0.94729 0.086,-1.43043 0.22726,-0.86662 0.13353,1.78392 -0.14203,4.01634 -0.0629,0.50932 -0.24382,2.05713 -0.40212,3.43958 -0.42424,3.70483 -1.3898,8.39745 -1.60288,7.78998 -0.13481,-0.3843 -0.22202,-0.25303 -0.36462,0.5488 -0.10308,0.57966 -0.24841,1.29205 -0.32294,1.5831 -0.11386,0.44458 -0.0865,0.46573 0.17136,0.13229 0.26029,-0.33664 0.283,-0.32331 0.14962,0.0878 -0.0865,0.26657 -0.15725,0.66054 -0.15725,0.87551 0,0.21497 -0.10659,0.32498 -0.23686,0.24447 -0.34884,-0.2156 -0.5793,0.58102 -0.40296,1.39295 0.10779,0.49632 0.0776,0.59871 -0.10163,0.34408 -0.19014,-0.27019 -0.3977,0.0187 -0.81515,1.13441 -0.30804,0.82329 -0.56007,1.61024 -0.56007,1.74877 0,0.13853 -0.31208,1.03144 -0.69351,1.98423 -0.51681,1.29096 -0.89528,1.8367 -1.48543,2.14188 -0.72756,0.37623 -0.77865,0.49261 -0.62847,1.43175 0.11897,0.74402 0.0602,1.08003 -0.21594,1.23456 -0.20868,0.11678 -0.35793,0.4503 -0.33168,0.74115 0.0343,0.38032 -0.13801,0.55421 -0.61372,0.61922 -0.3638,0.0497 -0.84005,0.24004 -1.05833,0.42294 -0.21828,0.18289 -0.635,0.43111 -0.92604,0.55159 -0.51304,0.21238 -0.51141,0.22218 0.0536,0.32156 0.6922,0.12175 1.01401,0.92882 0.632,1.585 -0.25775,0.44272 -0.27312,0.44301 -0.28072,0.005 -0.005,-0.31102 -0.21795,-0.46302 -0.64746,-0.46302 -0.72428,0 -0.98602,0.44837 -0.64703,1.10842 0.33354,0.64946 -0.30074,0.93472 -0.74066,0.3331 -0.34773,-0.47555 -0.37418,-0.47583 -0.81976,-0.009 -0.33941,0.35583 -0.37307,0.51507 -0.12805,0.60587 0.18281,0.0677 0.25774,0.24394 0.16651,0.39155 -0.10549,0.17069 0.0257,0.16585 0.36043,-0.0133 0.56411,-0.3019 0.86047,-0.16232 0.86047,0.40526 0,0.20108 -0.28801,0.35278 -0.66976,0.35278 -0.36837,0 -0.73278,0.16421 -0.80979,0.36492 -0.0784,0.20424 -0.71545,0.44124 -1.44691,0.53827 -1.1998,0.15916 -1.30756,0.23223 -1.31529,0.89186 -0.009,0.80548 -0.54068,1.64453 -1.04124,1.64453 -0.18179,0 -0.26275,0.17491 -0.18035,0.38964 0.0822,0.2143 -0.0617,0.54172 -0.31985,0.7276 -0.25815,0.18588 -0.54821,0.54925 -0.64457,0.80749 -0.13037,0.34939 -0.34593,0.42667 -0.84247,0.30205 -0.50614,-0.12704 -0.66727,-0.0647 -0.66727,0.25808 0,0.25208 -0.22023,0.42556 -0.54023,0.42556 -0.29712,0 -0.79582,0.23812 -1.10822,0.52917 l -0.56799,0.52916 h 0.82802 c 1.13931,0 1.29713,0.41699 0.29061,0.76787 -0.613,0.21369 -0.9285,0.21066 -1.19619,-0.0115 -0.2871,-0.23827 -0.55176,-0.0852 -1.258,0.72771 -0.49192,0.56621 -0.78693,1.06916 -0.65557,1.11766 0.33056,0.12207 0.30146,0.83785 -0.0341,0.83785 -0.15009,0 -0.34142,-0.17859 -0.42519,-0.39687 -0.22656,-0.59042 -1.15401,-0.50149 -1.15401,0.11065 0,1.11115 -0.26827,1.35022 -1.32547,1.18116 -1.16754,-0.18669 -1.58495,0.29307 -1.58495,1.82169 0,1.01647 -0.21295,1.35599 -0.63711,1.01579 -0.15891,-0.12745 -0.65664,-0.31025 -1.10606,-0.40621 -0.6909,-0.14752 -0.94588,-0.0428 -1.65061,0.67804 -0.45842,0.46888 -0.90908,0.77692 -1.00147,0.68453 -0.0924,-0.0924 -0.56234,0.13282 -1.04434,0.50046 -0.7083,0.54024 -0.97777,0.61416 -1.40516,0.38543 -0.91074,-0.48741 -1.36029,-0.33436 -1.53144,0.52141 -0.10646,0.5323 -0.30561,0.78706 -0.5887,0.75309 -0.2353,-0.0282 -0.60641,0.01 -0.82469,0.0843 -1.78044,0.60829 -2.42656,0.73819 -2.98034,0.59921 -0.8137,-0.20423 -2.75534,0.7781 -2.98822,1.51181 -0.13626,0.42935 -0.32281,0.5055 -0.93724,0.38262 -0.42681,-0.0854 -0.76712,-0.039 -0.76712,0.10455 0,0.14188 -0.46136,0.25796 -1.02526,0.25796 -1.72174,0 -2.7381,0.3015 -2.8829,0.85521 -0.10125,0.3872 -0.26833,0.46438 -0.69234,0.3198 -0.88641,-0.30226 -2.26495,-0.18652 -2.92431,0.24551 -0.43508,0.28507 -0.6868,0.3162 -0.89261,0.11039 -0.20582,-0.20581 -0.47617,-0.16248 -0.95869,0.15368 -0.5586,0.36601 -0.76321,0.38381 -1.21228,0.10547 -0.44303,-0.27459 -0.58161,-0.26839 -0.77006,0.0344 -0.12639,0.20311 -0.4175,0.29726 -0.6469,0.20923 -0.55573,-0.21325 -2.06971,0.44051 -2.98541,1.28915 -0.78756,0.72988 -1.11414,0.51152 -0.61891,-0.41383 0.29061,-0.54302 0.27718,-0.54842 -0.44587,-0.17908 -0.56961,0.29097 -0.85807,0.31036 -1.22265,0.0822 -0.38147,-0.23874 -0.52951,-0.20666 -0.73828,0.15998 -0.1895,0.33282 -0.38519,0.39254 -0.71347,0.21776 -1.47171,-0.7836 -2.63403,-0.75617 -4.00227,0.0944 -0.52139,0.32415 -1.09682,0.67731 -1.27872,0.78479 -0.22706,0.13417 -0.33073,-0.004 -0.33073,-0.44064 z m 35.35849,-0.58579 c 0.0838,-0.21828 0.25862,-0.39687 0.38857,-0.39687 0.12995,0 0.23627,0.17859 0.23627,0.39687 0,0.21828 -0.17485,0.39688 -0.38857,0.39688 -0.23669,0 -0.32904,-0.15513 -0.23627,-0.39688 z m 2.59834,-1.7374 c -0.0959,-0.1552 -0.11087,-0.34571 -0.0332,-0.42336 0.18953,-0.18953 0.70556,0.14441 0.70556,0.45658 0,0.33813 -0.45678,0.31556 -0.67234,-0.0332 z m -2.02311,-0.6923 c 0.191,-0.0764 0.4192,-0.067 0.50712,0.0209 0.0879,0.0879 -0.0684,0.15045 -0.34726,0.13897 -0.30823,-0.0127 -0.37092,-0.0754 -0.15986,-0.15986 z m 3.4892,-0.54233 c 0,-0.46859 0.60713,-1.08249 0.94306,-0.95358 0.59616,0.22877 0.34417,0.96445 -0.34775,1.0153 -0.32742,0.0241 -0.59531,-0.004 -0.59531,-0.0617 z m -9.26042,-1.65818 c 0,-0.14552 0.11906,-0.26458 0.26458,-0.26458 0.14552,0 0.26459,0.11906 0.26459,0.26458 0,0.14552 -0.11907,0.26459 -0.26459,0.26459 -0.14552,0 -0.26458,-0.11907 -0.26458,-0.26459 z m 14.14433,-1.86969 c -0.0959,-0.1552 -0.11087,-0.34571 -0.0332,-0.42336 0.18953,-0.18953 0.70556,0.14441 0.70556,0.45658 0,0.33813 -0.45678,0.31556 -0.67234,-0.0332 z m -7.52975,-0.24697 c 0,-0.14553 0.11907,-0.26459 0.26459,-0.26459 0.14552,0 0.26458,0.11906 0.26458,0.26459 0,0.14552 -0.11906,0.26458 -0.26458,0.26458 -0.14552,0 -0.26459,-0.11906 -0.26459,-0.26458 z m 8.99584,-0.52917 c 0,-0.14552 0.18562,-0.26458 0.41249,-0.26458 0.22687,0 0.3389,0.11906 0.24897,0.26458 -0.0899,0.14552 -0.27556,0.26458 -0.41249,0.26458 -0.13694,0 -0.24897,-0.11906 -0.24897,-0.26458 z m -4.63021,-0.26458 c 0.0899,-0.14553 0.21603,-0.26459 0.2802,-0.26459 0.0642,0 0.11667,0.11906 0.11667,0.26459 0,0.14552 -0.12608,0.26458 -0.28019,0.26458 -0.15411,0 -0.20662,-0.11906 -0.11668,-0.26458 z m 2.93979,-1.47409 c -0.18444,-0.48062 0.003,-0.90716 0.39873,-0.90716 0.14552,0 0.191,0.11906 0.10106,0.26458 -0.24212,0.39176 0.22139,0.32082 0.80933,-0.12388 0.64951,-0.49126 0.91046,-0.50296 0.91046,-0.0408 0,0.89124 -1.91947,1.58936 -2.21958,0.80727 z m -43.02417,-30.51865 1.19063,-0.16327 -1.85208,-0.20778 c -2.53304,-0.28416 -5.2884,-0.99503 -4.86679,-1.2556 0.26746,-0.1653 0.26236,-0.29428 -0.0254,-0.64099 -0.37965,-0.45744 -1.56012,-0.34752 -1.88328,0.17537 -0.19917,0.32226 -3.14335,-1.05327 -3.33754,-1.55931 -0.0716,-0.18646 -0.307713,-0.33901 -0.524813,-0.33901 -0.71785,0 -2.22587,-0.85953 -2.09704,-1.19525 0.16667,-0.43434 -0.33498,-0.91519 -0.77759,-0.74534 -0.37781,0.14497 -0.43538,0.10822 -2.23028,-1.42379 -1.50842,-1.28749 -2.39666,-1.9351 -1.91823,-1.39859 0.37339,0.41872 0.44821,0.89806 0.1073,0.68737 -0.12288,-0.076 -0.6006,-0.90424 -1.06159,-1.84064 -0.46099,-0.93641 -1.01529,-1.77053 -1.23178,-1.85361 -0.53064,-0.20362 -0.49583,0.004 0.15357,0.91599 0.30095,0.42264 0.48984,0.76845 0.41976,0.76845 -0.32972,0 -1.70655,-2.21449 -1.58071,-2.54242 0.1889,-0.49226 -0.70293,-1.86452 -0.95094,-1.46322 -0.10761,0.17412 -0.42982,-0.20875 -0.77689,-0.92313 -0.32617,-0.67135 -0.54408,-1.26959 -0.48425,-1.32942 0.0598,-0.0598 0.25911,0.25414 0.44284,0.69771 0.30925,0.74658 0.36094,0.77178 0.69591,0.33921 0.33496,-0.43255 0.43567,-0.38341 1.3552,0.6613 0.54634,0.62071 1.20171,1.12673 1.45637,1.12448 0.25466,-0.002 0.46302,0.1745 0.46302,0.39278 0,0.21828 -0.17859,0.39687 -0.39687,0.39687 -0.22049,0 -0.39688,0.23519 -0.39688,0.52917 0,0.59305 0.53869,0.68429 1.38043,0.2338 0.46158,-0.24703 0.52588,-0.22758 0.39296,0.11882 -0.0982,0.25595 -0.0377,0.37163 0.15832,0.30281 0.17449,-0.0613 0.55537,0.0712 0.84642,0.29442 0.49966,0.38315 0.50335,0.42494 0.0661,0.74932 -0.62849,0.46631 -0.58221,1.09776 0.11633,1.58703 0.67949,0.47594 0.96311,0.33984 0.48709,-0.23373 -0.43416,-0.52314 -0.16084,-1.20039 0.48445,-1.20039 0.54588,0 0.89597,0.57949 0.68393,1.13207 -0.0714,0.18608 0.0491,0.57303 0.26786,0.8599 0.34373,0.45081 0.43371,0.46773 0.66324,0.1247 0.14606,-0.21828 0.28552,-0.27781 0.30992,-0.13229 0.0244,0.14552 0.072,0.38364 0.10582,0.52916 0.0338,0.14553 0.0752,0.42044 0.092,0.61093 0.0168,0.19049 0.14958,0.27276 0.2951,0.18282 0.14552,-0.0899 0.26458,-0.0455 0.26458,0.0988 0,0.1443 0.25012,0.34175 0.55581,0.43877 0.40442,0.12836 0.47648,0.25572 0.26458,0.46762 -0.48403,0.48404 -0.32927,0.84463 0.3801,0.8856 0.56248,0.0325 0.61866,-0.0242 0.34755,-0.35089 -0.25771,-0.31052 -0.24624,-0.43846 0.0565,-0.63002 0.55723,-0.3526 0.70352,-0.31015 1.155643,0.33533 0.39084,0.55801 0.42449,0.56249 0.7617,0.10132 0.33473,-0.45777 0.39247,-0.4448 1.12745,0.25323 0.42606,0.40464 0.63405,0.65476 0.46221,0.55582 -0.17185,-0.0989 -0.38737,-0.0587 -0.47894,0.0895 -0.0916,0.14817 0.16809,0.38829 0.57703,0.5336 0.40894,0.14531 0.95027,0.38321 1.20295,0.52867 0.61728,0.35533 0.73119,0.3347 0.73119,-0.13241 0,-0.21828 -0.11906,-0.39687 -0.26458,-0.39687 -0.14552,0 -0.26458,-0.17859 -0.26458,-0.39688 0,-0.21828 0.0412,-0.39687 0.0916,-0.39687 0.27913,0 1.76044,0.86261 1.76044,1.02516 0,0.24361 2.99143,0.17786 3.40013,-0.0747 0.16722,-0.10335 0.30404,-0.0618 0.30404,0.0923 0,0.15504 0.52358,0.2802 1.17222,0.2802 1.00077,0 1.18459,0.084 1.25677,0.57458 0.11089,0.75362 1.21563,1.12305 2.21832,0.74183 0.60777,-0.23107 0.68154,-0.33808 0.37081,-0.53786 -0.33973,-0.21841 -0.33862,-0.28175 0.009,-0.50992 0.21828,-0.14329 0.61981,-0.26236 0.89229,-0.26458 0.41396,-0.003 0.44039,0.0623 0.16074,0.39921 -0.18408,0.2218 -0.25172,0.48624 -0.15031,0.58765 0.10141,0.10141 0.28431,0.0227 0.40644,-0.1749 0.13741,-0.22234 0.49278,-0.30754 0.93229,-0.22352 0.55091,0.10531 0.75633,0.0112 0.91569,-0.41962 0.17312,-0.46799 0.38844,-0.54266 1.36842,-0.47454 1.24187,0.0863 2.47147,0.9358 2.23741,1.54574 -0.1694,0.44145 -0.0784,0.4343 1.46975,-0.11555 0.85315,-0.30302 1.29228,-0.61034 1.29228,-0.90441 0,-0.82508 0.31778,-1.28247 0.8882,-1.2784 0.31185,0.002 0.44794,0.0915 0.30242,0.19844 -0.14552,0.10691 -0.26458,0.41838 -0.26458,0.69215 0,0.28076 -0.34603,0.68591 -0.79375,0.92935 -1.51234,0.82233 -1.55053,0.86025 -1.15273,1.14446 0.26823,0.19163 0.23581,0.21647 -0.12823,0.0982 -0.26796,-0.087 -1.22046,0.0347 -2.11666,0.27042 -2.84327,0.74796 -5.02811,1.15948 -6.39186,1.20393 l -1.32302,0.0431 1.45521,0.17833 c 1.08568,0.13305 0.64897,0.17919 -1.7198,0.18172 -1.89861,0.002 -2.69635,-0.0623 -1.98437,-0.15988 z m 0.52917,-2.84798 c 0,-0.33633 -0.0736,-0.35254 -0.39396,-0.0867 -0.21668,0.17982 -0.32751,0.43447 -0.2463,0.56588 0.20873,0.33773 0.64026,0.0148 0.64026,-0.47919 z m 8.59896,-0.0843 c 0.0899,-0.14552 0.0374,-0.26459 -0.11668,-0.26459 -0.15411,0 -0.2802,0.11907 -0.2802,0.26459 0,0.14552 0.0525,0.26458 0.11668,0.26458 0.0642,0 0.19026,-0.11906 0.2802,-0.26458 z m -11.84011,2.73518 c 0.18191,-0.0734 0.47956,-0.0734 0.66146,0 0.1819,0.0734 0.0331,0.13346 -0.33073,0.13346 -0.3638,0 -0.51263,-0.0601 -0.33073,-0.13346 z m 8.73125,0 c 0.18191,-0.0734 0.47956,-0.0734 0.66146,0 0.1819,0.0734 0.0331,0.13346 -0.33073,0.13346 -0.3638,0 -0.51263,-0.0601 -0.33073,-0.13346 z m -10.03763,-0.27009 c 0.191,-0.0764 0.41921,-0.067 0.50712,0.0209 0.0879,0.0879 -0.0684,0.15045 -0.34726,0.13896 -0.30823,-0.0127 -0.37092,-0.0754 -0.15986,-0.15985 z m 11.90625,0 c 0.191,-0.0764 0.41921,-0.067 0.50712,0.0209 0.0879,0.0879 -0.0684,0.15045 -0.34726,0.13896 -0.30823,-0.0127 -0.37092,-0.0754 -0.15986,-0.15985 z m -17.41289,-1.67134 c -0.21828,-0.14107 -0.27781,-0.25649 -0.13229,-0.25649 0.14552,0 0.44318,0.11542 0.66146,0.25649 0.21828,0.14106 0.27781,0.25648 0.13229,0.25648 -0.14552,0 -0.44317,-0.11542 -0.66146,-0.25648 z m 20.67766,-1.40683 c -0.24295,-0.29274 -0.22099,-0.44997 0.10009,-0.71644 0.61782,-0.51275 1.1873,0.11537 0.61944,0.68323 -0.35089,0.35089 -0.45201,0.35555 -0.71953,0.0332 z m -9.0856,-0.36142 c 0.191,-0.0764 0.4192,-0.067 0.50712,0.0209 0.0879,0.0879 -0.0684,0.15045 -0.34727,0.13896 -0.30822,-0.0127 -0.37091,-0.0754 -0.15985,-0.15985 z m 13.01419,-0.10861 c 0,-0.15914 0.23813,-0.35162 0.52917,-0.42773 0.29104,-0.0761 0.52917,-0.24356 0.52917,-0.37211 0,-0.12855 0.20836,-0.23357 0.46302,-0.2334 0.35952,2.5e-4 0.29119,0.1481 -0.30574,0.66146 -0.82863,0.71262 -1.21562,0.83098 -1.21562,0.37178 z m -16.40416,-0.76898 c 0,-0.14552 0.11204,-0.26458 0.24897,-0.26458 0.13693,0 0.32255,0.11906 0.41249,0.26458 0.0899,0.14552 -0.0221,0.26459 -0.24897,0.26459 -0.22687,0 -0.41249,-0.11907 -0.41249,-0.26459 z m 18.52083,-0.66713 c 0,-0.21516 -0.11906,-0.3912 -0.26458,-0.3912 -0.14552,0 -0.26441,-0.0893 -0.2642,-0.19844 2.2e-4,-0.10914 0.47376,-0.23088 1.05231,-0.27053 0.80726,-0.0553 1.01917,0.0132 0.9111,0.29489 -0.0774,0.20184 -0.43193,0.49962 -0.78773,0.66174 -0.52736,0.24028 -0.6469,0.22245 -0.6469,-0.0965 z m -33.371253,-0.85422 c -0.3291,-0.41965 -0.31975,-0.429 0.0999,-0.0999 0.44073,0.34565 0.58088,0.56292 0.36312,0.56292 -0.0549,0 -0.2633,-0.20836 -0.46302,-0.46302 z m 33.900423,-1.54341 c 0,-0.2304 0.14139,-0.37179 0.31419,-0.31419 0.4906,0.16354 0.57197,0.73312 0.10473,0.73312 -0.23041,0 -0.41892,-0.18852 -0.41892,-0.41893 z m -41.014853,-8.45628 c -0.14076,-0.37022 -0.31915,-0.9953 -0.39642,-1.38907 -0.12437,-0.63379 -0.1114,-0.6503 0.11305,-0.14388 0.13944,0.31462 0.50798,0.6528 0.81897,0.7515 0.3602,0.11432 0.51047,0.3227 0.41401,0.57408 -0.0833,0.21703 -0.15143,0.50393 -0.15143,0.63755 0,0.51094 -0.55386,0.21243 -0.79818,-0.43018 z m -1.96104,-3.97598 c -0.0973,-0.38775 -0.11162,-0.77033 -0.0318,-0.85017 0.0798,-0.0798 0.14699,0.0235 0.14922,0.22966 0.003,0.30928 0.051,0.30542 0.27262,-0.022 0.19614,-0.28984 0.22069,-0.18281 0.091,0.39687 -0.23548,1.05273 -0.27364,1.07222 -0.48108,0.24569 z m -0.39489,-1.85524 c 0.0127,-0.30822 0.0754,-0.37091 0.15985,-0.15985 0.0764,0.191 0.067,0.4192 -0.0209,0.50712 -0.0879,0.0879 -0.15045,-0.0684 -0.13896,-0.34727 z m 0.51233,-0.30867 c -0.002,-0.32743 0.11501,-0.59532 0.26053,-0.59532 0.33151,0 0.33151,0.28079 0,0.79375 -0.2074,0.32093 -0.25725,0.28296 -0.26053,-0.19843 z m -0.75602,-0.8599 c 0,-0.3638 0.06,-0.51263 0.13345,-0.33073 0.0734,0.1819 0.0734,0.47956 0,0.66146 -0.0734,0.1819 -0.13345,0.0331 -0.13345,-0.33073 z m 55.587443,-0.92604 c 0.003,-0.58209 0.0571,-0.78906 0.12041,-0.45994 0.0633,0.32912 0.0609,0.80537 -0.005,1.05834 -0.0662,0.25296 -0.118,-0.0163 -0.11506,-0.5984 z m -55.821743,-1.45518 c 0,-0.65484 0.0516,-0.92273 0.11466,-0.59531 0.0631,0.32742 0.0631,0.8632 0,1.19062 -0.0631,0.32742 -0.11466,0.0595 -0.11466,-0.59531 z M 24.375,154.62566 c 0,-0.3638 0.06005,-0.51263 0.133453,-0.33073 0.0734,0.1819 0.0734,0.47956 0,0.66146 -0.0734,0.1819 -0.133453,0.0331 -0.133453,-0.33073 z m 116.16189,-1.45521 c 0.005,-0.43656 0.0647,-0.58312 0.13177,-0.32569 0.0671,0.25743 0.0627,0.61462 -0.01,0.79375 -0.0725,0.17913 -0.12737,-0.0315 -0.12197,-0.46806 z M 85.472857,149.9734 c 0.0127,-0.30822 0.0754,-0.37092 0.15986,-0.15985 0.0764,0.191 0.067,0.4192 -0.0209,0.50712 -0.0879,0.0879 -0.15045,-0.0683 -0.13896,-0.34727 z m 0.52917,-1.85208 c 0.0127,-0.30823 0.0754,-0.37092 0.15985,-0.15985 0.0764,0.19099 0.067,0.4192 -0.0209,0.50711 -0.0879,0.0879 -0.15045,-0.0683 -0.13896,-0.34726 z M 112.10284,129.0347 c 0.4697,-0.0584 1.30314,-0.0594 1.85209,-0.002 0.54895,0.0573 0.16465,0.1051 -0.854,0.10628 -1.01864,0.001 -1.46778,-0.0457 -0.99809,-0.10414 z m 42.21198,-9.78198 c 0.25743,-0.0671 0.61462,-0.0627 0.79375,0.01 0.17913,0.0725 -0.0315,0.12736 -0.46805,0.12197 -0.43657,-0.005 -0.58313,-0.0647 -0.3257,-0.13177 z m -3.84149,-0.26795 c 0.32742,-0.0631 0.8632,-0.0631 1.19062,0 0.32742,0.0631 0.0595,0.11466 -0.59531,0.11466 -0.65484,0 -0.92273,-0.0516 -0.59531,-0.11466 z m -7.85047,-25.896786 c 0.0127,-0.308223 0.0754,-0.370919 0.15986,-0.15985 0.0764,0.190994 0.067,0.419197 -0.0209,0.507116 -0.0879,0.08792 -0.15045,-0.06835 -0.13896,-0.347266 z m -30.84484,-2.491491 c 0.0899,-0.145521 0.21602,-0.264583 0.28019,-0.264583 0.0642,0 0.11668,0.119062 0.11668,0.264583 0,0.145521 -0.12609,0.264583 -0.2802,0.264583 -0.1541,0 -0.20661,-0.119062 -0.11667,-0.264583 z m 6.08541,-3.704167 c -0.0899,-0.14552 0.0291,-0.264583 0.26459,-0.264583 0.23545,0 0.35452,0.119063 0.26458,0.264583 -0.0899,0.145521 -0.209,0.264584 -0.26458,0.264584 -0.0556,0 -0.17465,-0.119063 -0.26459,-0.264584 z m -1.05833,-2.645833 c 0.0899,-0.145521 0.27556,-0.264583 0.41249,-0.264583 0.13693,0 0.24897,0.119062 0.24897,0.264583 0,0.145521 -0.18562,0.264583 -0.41249,0.264583 -0.22687,0 -0.33891,-0.119062 -0.24897,-0.264583 z m -4.78536,-2.278695 c 0.0815,-0.55544 0.9489,-1.072353 0.9489,-0.565494 0,0.37936 -0.50846,0.992106 -0.82325,0.992106 -0.10354,0 -0.16008,-0.191977 -0.12565,-0.426612 z m 7.96036,-1.160888 c -0.0899,-0.145521 -0.0374,-0.264584 0.11668,-0.264584 0.15411,0 0.28019,0.119063 0.28019,0.264584 0,0.145521 -0.0525,0.264583 -0.11667,0.264583 -0.0642,0 -0.19026,-0.119062 -0.2802,-0.264583 z m -2.51354,-0.209053 c -0.82343,-0.12491 -1.37715,-0.597622 -0.64823,-0.553394 0.28376,0.01722 0.87312,0.109781 1.30969,0.2057 0.93114,0.204581 0.36318,0.503126 -0.66146,0.347694 z m -6.15157,-0.253484 c -0.66253,-0.150863 -0.57128,-0.558543 0.16648,-0.743707 0.87598,-0.21986 2.17604,-0.0392 2.01634,0.280202 -0.0728,0.145521 -0.30594,0.243909 -0.51817,0.218644 -0.21224,-0.02527 -0.56942,0.04321 -0.79375,0.152175 -0.22433,0.108963 -0.61623,0.150672 -0.8709,0.09269 z M 98.085857,238.8736 c -0.0364,-0.0363 -0.72102,-0.12829 -1.52139,-0.20443 -0.80036,-0.0761 -2.11005,-0.2549 -2.91041,-0.39726 -0.80037,-0.14235 -1.6338,-0.26927 -1.85209,-0.28204 -1.7244,-0.10085 -3.49117,-0.40093 -5.72308,-0.97205 -1.43621,-0.36751 -3.55801,-0.90899 -4.71511,-1.20329 -5.12303,-1.30299 -13.83496,-5.19271 -19.539,-8.7238 -7.93122,-4.90983 -16.69588,-13.09965 -22.194691,-20.73903 -7.576743,-10.5262 -12.548309,-22.81905 -14.338641,-35.45417 -0.206195,-1.4552 -0.379397,-2.82442 -0.384889,-3.0427 -0.0055,-0.21828 -0.147373,-1.5875 -0.315286,-3.04271 -0.636741,-5.51833 0.05619,-17.83274 1.325044,-23.54792 2.192142,-9.87388 5.010687,-17.17893 9.558983,-24.77477 1.957692,-3.26943 3.943652,-6.26708 5.234641,-7.90127 10.648769,-13.479693 24.608919,-22.942717 40.121479,-27.196727 3.49152,-0.95748 6.25379,-1.583045 7.82443,-1.771986 0.63896,-0.07686 1.45941,-0.2026 1.82321,-0.279414 3.31016,-0.698904 7.45927,-0.947695 13.890623,-0.832913 3.78354,0.06752 7.41495,0.199506 8.06979,0.293293 0.65485,0.09379 2.14313,0.294024 3.3073,0.444971 1.76648,0.229044 5.15851,0.917424 7.0776,1.436328 0.25466,0.06886 0.72061,0.181639 1.03544,0.250626 2.4546,0.537858 7.26759,2.176918 7.04526,2.399255 -0.12398,0.123984 -4.48596,-1.033767 -4.93089,-1.308748 -0.48339,-0.298749 -5.11893,-1.215713 -5.36791,-1.061834 -0.13086,0.08088 -0.16965,0.257522 -0.0862,0.392546 0.0894,0.144696 -0.12564,0.140047 -0.52376,-0.01132 -0.90372,-0.343593 -5.17559,0.08524 -5.17559,0.519555 0,0.436356 0.79429,0.832691 1.32879,0.663043 0.42908,-0.136184 0.59432,-0.04829 0.70502,0.375018 0.0795,0.304088 0.25678,0.552889 0.39392,0.552889 0.13714,0 0.16701,-0.148828 0.0664,-0.330729 -0.10063,-0.181901 0.19,0.06357 0.64584,0.545494 0.45583,0.481925 0.83195,1.017706 0.83582,1.190625 0.004,0.172921 0.21005,-0.01302 0.45816,-0.413203 0.55778,-0.899628 0.68183,-0.902393 1.36768,-0.03047 0.66981,0.851519 0.69188,1.152337 0.0854,1.163359 -0.47403,0.0086 -1.38906,0.583261 -1.38906,0.872345 0,0.08853 0.17437,0.09405 0.38749,0.01228 0.45119,-0.17314 2.06698,0.891109 1.8604,1.22537 -0.19774,0.319945 -1.5407,0.135464 -1.66195,-0.228301 -0.15882,-0.476459 -0.80461,-0.353599 -1.10651,0.210508 -0.335,0.625943 -0.21517,0.707562 1.39193,0.948095 1.51758,0.227137 1.53849,0.78464 0.0298,0.794522 -0.56839,0.0037 -1.43606,0.196012 -1.92815,0.427305 -0.63532,0.298614 -1.16241,0.360162 -1.81804,0.212291 -1.61066,-0.363262 -2.15416,0.154948 -0.97371,0.928407 0.53323,0.349383 0.76064,0.377386 1.05833,0.130323 0.30124,-0.250002 0.37917,-0.230981 0.37917,0.09254 0,0.223972 0.14048,0.454051 0.31219,0.511283 0.17791,0.05931 0.2365,0.301284 0.13621,0.562626 -0.14486,0.377505 -0.2749,0.405612 -0.73569,0.159009 -0.81588,-0.436649 -4.21063,-0.517668 -4.21063,-0.100488 0,0.186391 -0.20724,0.273489 -0.48062,0.201996 -0.31813,-0.08319 -0.58045,0.08173 -0.77585,0.487791 -0.23015,0.478279 -0.29916,0.511437 -0.31312,0.150458 -0.0255,-0.660241 -1.08875,-0.60461 -1.26416,0.06615 -0.0761,0.291041 -0.21379,0.535739 -0.30596,0.543774 -0.0922,0.008 -1.0227,0.05554 -2.06785,0.105577 -1.04514,0.05003 -2.05717,0.189716 -2.24896,0.310406 -0.19177,0.120693 -1.00535,0.182899 -1.80795,0.13824 -1.20305,-0.06695 -1.59679,0.02697 -2.24249,0.534879 -0.43077,0.338844 -1.083793,0.635905 -1.451153,0.660132 -0.36736,0.02424 -1.20371,0.183301 -1.85855,0.353494 -0.65485,0.170194 -1.52437,0.303496 -1.93228,0.296228 -0.40791,-0.0073 -1.41994,0.300561 -2.24896,0.684067 -1.28641,0.595098 -3.18107,1.111382 -6.76675,1.843897 -0.42355,0.08653 -0.81713,0.368178 -0.8868,0.634616 -0.0722,0.275998 -0.47835,0.555033 -0.95826,0.658312 -1.11385,0.23972 -2.00183,0.71299 -2.89715,1.54412 -0.40767,0.37845 -1.02297,0.68809 -1.36732,0.68809 -0.64854,0 -3.18446,1.16159 -3.44056,1.57596 -0.08,0.12948 -0.50936,0.31533 -0.95408,0.41301 -0.44473,0.0977 -0.87282,0.34496 -0.95132,0.54952 -0.0785,0.20456 -0.42764,0.37193 -0.77587,0.37193 -0.34823,0 -0.63315,0.12708 -0.63315,0.28241 0,0.16201 0.22561,0.21081 0.52916,0.11446 0.37554,-0.11919 0.52917,-0.0476 0.52917,0.24676 0,0.25936 -0.23382,0.4147 -0.62421,0.4147 -0.34873,0 -1.14124,0.45511 -1.79577,1.03125 -0.64436,0.56719 -1.60572,1.21266 -2.13634,1.43437 -0.55874,0.23345 -1.13819,0.73845 -1.37681,1.19989 -0.28066,0.54273 -0.64481,0.82356 -1.14206,0.88074 -0.51407,0.0591 -0.83452,0.31875 -1.08329,0.87771 -0.1943,0.43656 -0.73008,0.97234 -1.19063,1.19062 -0.60138,0.28503 -0.86153,0.60803 -0.92316,1.1462 -0.064,0.55882 -0.30726,0.84185 -0.95688,1.11327 -0.61204,0.25573 -0.91545,0.58595 -1.02037,1.11053 -0.0821,0.41061 -0.48496,1.10786 -0.89521,1.54944 -1.45973,1.57122 -2.2011,2.48762 -2.2011,2.72076 0,0.13004 -0.29209,0.42783 -0.64909,0.66174 -0.38953,0.25523 -0.71747,0.78974 -0.82006,1.33664 -0.13028,0.69442 -0.35363,0.97501 -0.93841,1.17886 -0.51974,0.18118 -0.76744,0.44766 -0.76744,0.82559 0,0.30694 -0.13474,1.09314 -0.29941,1.74714 -0.25041,0.99444 -0.42236,1.21366 -1.05051,1.33929 -0.80797,0.1616 -0.89407,0.33217 -1.16258,2.30324 -0.11498,0.8441 -0.39703,1.5113 -0.81599,1.93026 -0.35214,0.35214 -0.64026,0.87889 -0.64026,1.17054 0,0.29165 -0.18346,0.88505 -0.40769,1.31866 -0.22423,0.43361 -0.3429,0.8932 -0.26372,1.02132 0.22311,0.36101 -0.13709,1.07444 -0.54248,1.07444 -0.19994,0 -0.43357,0.32742 -0.51917,0.7276 -0.0856,0.40018 -0.27445,1.01862 -0.41966,1.37431 -0.14521,0.35569 -0.33412,1.88459 -0.4198,3.39756 -0.11012,1.94469 -0.26,2.79086 -0.51142,2.88733 -0.1956,0.0751 -0.35565,0.36969 -0.35565,0.65473 0,0.28504 -0.1398,0.77832 -0.31067,1.09617 -0.17087,0.31786 -0.35469,0.99464 -0.4085,1.50396 -0.0538,0.50933 -0.16262,1.46183 -0.24179,2.11667 -0.24248,2.00561 -0.26267,12.38665 -0.0303,15.61042 0.1206,1.67349 0.21498,3.423 0.20974,3.8878 -0.005,0.46481 0.10894,0.91832 0.25373,1.0078 0.14479,0.0895 0.26326,0.3853 0.26326,0.65736 0,0.27206 0.18339,0.67804 0.40752,0.90217 0.24344,0.24344 0.50291,1.24387 0.64442,2.48465 0.21944,1.92402 0.39155,2.91533 0.71028,4.09095 0.069,0.25466 0.33912,0.46302 0.60017,0.46302 0.36391,0 0.44508,0.15467 0.34791,0.66297 -0.0697,0.36464 -0.005,0.81113 0.14312,0.99219 0.39039,0.47627 0.94977,2.6061 0.87326,3.32494 -0.0456,0.4289 0.0982,0.65726 0.47645,0.75617 0.29801,0.0779 0.60949,0.39673 0.69216,0.70844 0.9575,3.61009 1.07124,3.87404 1.66935,3.87404 0.36701,0 0.61833,0.4005 0.99786,1.59016 0.32743,1.02635 0.62456,1.54525 0.83802,1.46351 0.1819,-0.0697 0.33073,-0.0113 0.33073,0.12963 0,0.14095 0.23813,0.49441 0.52917,0.78545 0.29104,0.29104 0.53099,0.79705 0.53322,1.12448 0.006,0.81447 0.27679,1.17545 1.12581,1.49825 0.39722,0.15102 0.72222,0.458 0.72222,0.68217 0,0.22418 0.14772,0.8809 0.32826,1.45938 0.24297,0.7785 0.44015,1.01628 0.75889,0.91511 0.50199,-0.15932 1.42639,1.04689 1.42639,1.86123 0,0.39991 0.1802,0.53196 0.73771,0.5406 0.56054,0.009 0.87826,0.24431 1.32292,0.98108 0.32186,0.53331 0.662,0.94488 0.75586,0.91461 0.33706,-0.1087 1.28455,0.96339 1.28455,1.45348 0,0.27526 0.33796,0.69443 0.75101,0.93149 0.41306,0.23706 0.85954,0.67801 0.99219,0.97988 0.13265,0.30187 0.60802,0.66792 1.05638,0.81344 0.87512,0.28404 2.52501,1.43984 3.47164,2.432 0.32048,0.33589 0.87438,0.61071 1.23089,0.61071 0.48235,0 0.71901,0.2031 0.92491,0.79375 0.18387,0.52744 0.4554,0.79375 0.80933,0.79375 0.60878,0 1.67929,1.0294 1.5152,1.45702 -0.0657,0.17118 0.32389,0.30225 0.97567,0.32824 0.75719,0.0302 1.21126,0.21061 1.5028,0.59712 0.26129,0.3464 0.57953,0.49178 0.84963,0.38813 0.2803,-0.10756 0.53509,0.0272 0.72604,0.38397 0.16971,0.31711 0.55723,0.54969 0.9159,0.54969 0.37541,0 0.79789,0.26887 1.0664,0.67866 0.36762,0.56107 0.57898,0.64917 1.21972,0.50844 0.67083,-0.14734 0.81155,-0.0742 1.04656,0.54391 0.2352,0.61864 0.37827,0.69279 1.06974,0.5545 0.57093,-0.11419 0.84107,-0.048 0.94874,0.23263 0.0914,0.23811 0.49722,0.39228 1.03265,0.39228 0.48517,0 0.95571,0.11906 1.04564,0.26458 0.0899,0.14552 0.626,0.26458 1.19124,0.26458 0.6853,0 1.14291,0.15871 1.37345,0.47633 0.5008,0.68997 1.90667,1.18811 2.79964,0.99198 0.53329,-0.11713 0.87303,-0.0436 1.1082,0.23972 0.18653,0.22475 0.61547,0.40864 0.9532,0.40864 0.33773,0 0.78797,0.2483 1.00053,0.55177 0.27491,0.39249 0.6134,0.52797 1.17256,0.46932 0.432343,-0.0453 0.970763,0.0708 1.196493,0.25817 0.36441,0.30243 4.96604,0.8303 7.21678,0.82787 0.89608,-0.001 1.60189,0.61584 1.74139,1.52182 0.0902,0.58576 0.0913,0.58562 1.30758,-0.17436 1.63547,-1.02188 2.71419,-1.08887 4.26213,-0.2647 0.32828,0.17479 0.52396,0.11507 0.71347,-0.21775 0.20876,-0.36665 0.3568,-0.39872 0.73828,-0.15999 0.36458,0.22816 0.65303,0.20877 1.22265,-0.0822 0.72305,-0.36933 0.73648,-0.36394 0.44586,0.17908 -0.49523,0.92535 -0.16865,1.14372 0.61891,0.41383 0.9157,-0.84864 2.42968,-1.50239 2.98541,-1.28914 0.22941,0.088 0.52051,-0.006 0.64691,-0.20923 0.18845,-0.30283 0.32702,-0.30902 0.77006,-0.0344 0.44907,0.27834 0.65367,0.26054 1.21228,-0.10548 0.48251,-0.31615 0.75287,-0.35949 0.95868,-0.15367 0.20582,0.20581 0.45754,0.17468 0.89261,-0.11039 0.65937,-0.43203 2.03791,-0.54777 2.92432,-0.24551 0.424,0.14458 0.59108,0.0674 0.69234,-0.31981 0.1448,-0.5537 1.16115,-0.8552 2.8829,-0.8552 0.56389,0 1.02526,-0.11609 1.02526,-0.25797 0,-0.14353 0.3403,-0.18991 0.76711,-0.10455 0.61443,0.12289 0.80098,0.0467 0.93725,-0.38261 0.23287,-0.73372 2.17451,-1.71605 2.98822,-1.51182 0.55377,0.13899 1.1999,0.009 2.98033,-0.5992 0.21828,-0.0746 0.5894,-0.1125 0.82469,-0.0843 0.2831,0.034 0.48224,-0.22078 0.5887,-0.75308 0.17116,-0.85577 0.62071,-1.00883 1.53145,-0.52142 0.42738,0.22873 0.69686,0.15482 1.40516,-0.38543 0.482,-0.36764 0.95195,-0.59284 1.04434,-0.50046 0.0924,0.0924 0.54304,-0.21565 1.00146,-0.68453 0.70473,-0.72081 0.95971,-0.82555 1.65062,-0.67803 0.44942,0.096 0.94714,0.27875 1.10605,0.40621 0.42416,0.3402 0.63712,7.9e-4 0.63712,-1.01579 0,-1.52863 0.41741,-2.00839 1.58494,-1.82169 1.0572,0.16905 1.32547,-0.07 1.32547,-1.18117 0,-0.61213 0.92746,-0.70106 1.15402,-0.11065 0.0838,0.21828 0.27509,0.39688 0.42518,0.39688 0.33553,0 0.36462,-0.71578 0.0341,-0.83785 -0.13135,-0.0485 0.16366,-0.55146 0.65558,-1.11766 0.70623,-0.81289 0.97089,-0.96598 1.25799,-0.72772 0.26769,0.22217 0.5832,0.2252 1.19619,0.0115 1.00652,-0.35087 0.84871,-0.76786 -0.2906,-0.76786 h -0.82803 l 0.56799,-0.52917 c 0.3124,-0.29104 0.8111,-0.52916 1.10823,-0.52916 0.32,0 0.54023,-0.17349 0.54023,-0.42556 0,-0.3228 0.16112,-0.38512 0.66727,-0.25809 0.49654,0.12463 0.71209,0.0473 0.84247,-0.30204 0.0964,-0.25824 0.38641,-0.62161 0.64456,-0.80749 0.25815,-0.18589 0.40209,-0.51331 0.31985,-0.72761 -0.0824,-0.21473 -0.001,-0.38963 0.18035,-0.38963 0.50056,0 1.03182,-0.83906 1.04125,-1.64454 0.008,-0.65962 0.11549,-0.73269 1.31529,-0.89185 0.73145,-0.097 1.36853,-0.33403 1.4469,-0.53828 0.077,-0.2007 0.44143,-0.36491 0.8098,-0.36491 0.38174,0 0.66976,-0.15171 0.66976,-0.35278 0,-0.56758 -0.29637,-0.70717 -0.86047,-0.40527 -0.33472,0.17914 -0.46593,0.18398 -0.36044,0.0133 0.0912,-0.14761 0.0163,-0.3238 -0.1665,-0.39155 -0.24502,-0.0908 -0.21137,-0.25003 0.12805,-0.60587 0.44558,-0.46713 0.47203,-0.46685 0.81976,0.009 0.43991,0.60162 1.07419,0.31636 0.74065,-0.3331 -0.33898,-0.66005 -0.0772,-1.10842 0.64704,-1.10842 0.4295,0 0.64205,0.15199 0.64745,0.46302 0.008,0.43767 0.023,0.43738 0.28072,-0.005 0.38202,-0.65617 0.0602,-1.46325 -0.632,-1.58499 -0.56504,-0.0994 -0.56668,-0.10918 -0.0536,-0.32156 0.29104,-0.12049 0.70776,-0.3687 0.92604,-0.5516 0.21828,-0.18289 0.69453,-0.37321 1.05834,-0.42293 0.47571,-0.065 0.64805,-0.2389 0.61372,-0.61922 -0.0263,-0.29085 0.123,-0.62437 0.33167,-0.74115 0.27614,-0.15454 0.33492,-0.49054 0.21594,-1.23456 -0.15005,-0.93839 -0.0988,-1.05568 0.62512,-1.43002 0.83227,-0.43039 1.41105,-1.5988 2.44147,-4.92873 0.63909,-2.06528 1.18228,-2.99344 0.92907,-1.5875 -0.50207,2.78771 -2.75112,8.34733 -5.45865,13.49375 -6.56192,12.47275 -18.77369,24.99175 -30.52061,31.28847 -1.76846,0.94795 -2.55975,1.33473 -6.48049,3.16765 -2.15375,1.00687 -6.22434,2.58554 -6.66678,2.58554 -0.18328,0 -1.1105,0.23429 -2.0605,0.52065 -4.66884,1.40733 -7.14609,1.908 -10.98767,2.22068 -1.83147,0.14907 -1.83662,0.14768 -0.46302,-0.12484 0.76398,-0.15158 1.38944,-0.35582 1.3899,-0.45386 5.3e-4,-0.098 0.50648,-0.18478 1.12448,-0.19276 1.97426,-0.0255 3.10801,-0.35265 3.10801,-0.89688 0,-0.38937 0.24035,-0.50967 1.16538,-0.58333 0.64095,-0.051 1.11017,-0.003 1.04271,0.10566 -0.0675,0.10914 -0.28719,0.19843 -0.48829,0.19843 -0.20111,0 -0.43279,0.10864 -0.51485,0.24142 -0.14259,0.23071 2.02209,-0.17538 4.1746,-0.78315 0.75314,-0.21265 0.97313,-0.39258 0.85533,-0.69956 -0.0872,-0.2273 -0.0229,-0.57678 0.14296,-0.77662 0.3538,-0.42631 2.52985,-0.49549 2.66675,-0.0848 0.0582,0.17468 0.73124,0.051 1.80452,-0.33152 1.23138,-0.4389 1.7384,-0.75835 1.80696,-1.13846 0.14551,-0.80677 0.38197,-0.94207 1.81692,-1.03968 1.73273,-0.11787 2.46035,-0.36317 2.46035,-0.82944 0,-0.20847 0.18562,-0.37904 0.41249,-0.37904 0.22687,0 0.3377,-0.121 0.2463,-0.2689 -0.0914,-0.1479 -0.27703,-0.2004 -0.41249,-0.11668 -0.13547,0.0837 -0.2463,0.0284 -0.2463,-0.12293 0,-0.15134 -0.29766,-0.34987 -0.66146,-0.44118 -0.70396,-0.17668 -0.91316,-0.63781 -0.28935,-0.63781 0.55304,0 0.20493,-1.00748 -0.41623,-1.20463 -0.73851,-0.23439 -2.33713,0.5874 -2.33713,1.20143 0,0.27562 -0.1243,0.57796 -0.27622,0.67185 -0.31959,0.19752 -1.65081,-0.59791 -1.47546,-0.88163 0.0645,-0.10435 -0.0499,-0.41835 -0.25423,-0.69777 -0.36361,-0.49726 -0.38482,-0.4955 -1.00105,0.0834 -0.51414,0.483 -0.65706,0.51981 -0.7795,0.20076 -0.0976,-0.25426 -0.35401,-0.33732 -0.73439,-0.23785 -0.56625,0.14808 -0.56882,0.16433 -0.0823,0.5213 0.27618,0.20265 0.69267,0.31903 0.92555,0.25862 0.47725,-0.12379 1.77911,0.7483 1.51353,1.01388 -0.0945,0.0945 -0.39111,0.0545 -0.65912,-0.089 -0.63091,-0.33765 -2.977,-0.0795 -3.65907,0.40257 -0.50545,0.35726 -0.499,0.36677 0.14387,0.212 0.48587,-0.11698 0.81039,-0.0103 1.16695,0.38374 0.622,0.68729 0.41565,0.91936 -0.46194,0.51951 -0.5707,-0.26003 -0.79639,-0.22078 -1.4641,0.25467 -1.44588,1.02956 -1.87764,0.72944 -1.22828,-0.8538 0.15917,-0.38806 0.0967,-0.46997 -0.30071,-0.39417 -0.28381,0.0541 -0.53926,0.36002 -0.58829,0.70447 -0.0889,0.62479 -0.17074,0.67877 -1.45804,0.96211 -0.62763,0.13814 -0.69747,0.22973 -0.42531,0.55766 0.59675,0.71904 0.008,0.73179 -1.01597,0.022 -0.55617,-0.38542 -1.34025,-0.70076 -1.74242,-0.70076 -0.62442,0 -0.70523,-0.0819 -0.55332,-0.56047 0.12841,-0.40462 0.0785,-0.52735 -0.17949,-0.44135 -0.19655,0.0655 -0.35788,0.34719 -0.35849,0.62593 -8e-4,0.39755 -0.1911,0.50696 -0.88235,0.5075 -0.53327,5.2e-4 -1.01491,0.1835 -1.21979,0.4637 -0.37267,0.50965 -1.86139,0.63681 -2.14189,0.18295 -0.0955,-0.15446 -0.49593,-0.20917 -0.89287,-0.12199 -0.50739,0.11144 -0.9286,-0.006 -1.42747,-0.39857 -0.66819,-0.5256 -1.42801,-0.50819 -1.09837,0.0252 0.23972,0.38788 -0.11934,0.76816 -0.56415,0.59748 -0.22198,-0.0852 -0.34097,-0.31811 -0.26441,-0.51762 0.18262,-0.47589 0.025,-0.45872 -0.48676,0.0531 -0.67259,0.67259 -0.51158,1.17172 0.37797,1.17172 0.84443,0 1.01336,0.28212 0.44926,0.75028 -0.44163,0.36652 -1.50759,0.0948 -1.50759,-0.38426 0,-0.45587 -0.0689,-0.45487 -1.19912,0.0173 -1.05109,0.43918 -1.18977,0.86408 -0.32223,0.98729 0.70152,0.0996 0.80231,0.83119 0.13229,0.96022 -0.28256,0.0544 -0.46302,-0.0731 -0.46302,-0.3271 0,-0.5733 -0.33618,-0.52148 -0.73235,0.11289 -0.40744,0.65241 -1.11674,0.694 -1.12815,0.0661 -0.005,-0.25466 -0.16914,-0.67488 -0.36558,-0.93381 -0.44611,-0.58803 -0.69611,-0.10692 -0.49395,0.95058 0.11306,0.59145 0.0412,0.71084 -0.42772,0.71084 -0.30998,0 -0.77034,0.11901 -1.02303,0.26446 -0.25269,0.14546 -0.78685,0.38064 -1.18703,0.52262 -0.40019,0.14199 -0.72761,0.36334 -0.72761,0.49191 0,0.32421 3.26664,0.0489 3.48172,-0.29344 0.11242,-0.17893 0.33077,-0.12128 0.61421,0.16216 0.34042,0.34042 0.94364,0.43979 2.66985,0.43979 1.31031,0 2.23005,0.10912 2.23005,0.26458 0,0.14552 0.74414,0.27577 1.65365,0.28944 l 1.65365,0.0249 -1.7198,0.33929 c -1.43627,0.28336 -12.515213,0.50084 -12.766113,0.25059 z m -3.70971,-1.06404 c -0.0879,-0.0879 -0.31612,-0.0973 -0.50712,-0.0209 -0.21106,0.0845 -0.14837,0.14716 0.15985,0.15986 0.27892,0.0115 0.43519,-0.0511 0.34727,-0.13897 z m -1.5875,-0.26459 c -0.0879,-0.0879 -0.31612,-0.0973 -0.50712,-0.0209 -0.21106,0.0845 -0.14837,0.14716 0.15985,0.15985 0.27892,0.0115 0.43519,-0.051 0.34727,-0.13896 z m 8.240673,-1.29535 c 0.0801,-0.32032 -0.33204,-0.22759 -0.44097,0.0992 -0.0667,0.20009 -0.002,0.28938 0.14331,0.19843 0.14552,-0.091 0.27947,-0.22489 0.29766,-0.29765 z m 32.70724,-4.09801 c 0.0927,-0.14999 -0.0135,-0.19434 -0.24897,-0.10399 -0.45837,0.17589 -0.54223,0.36554 -0.16165,0.36554 0.13694,0 0.32171,-0.1177 0.41062,-0.26155 z m -22.22166,-1.8535 c -0.26419,-0.29193 -0.67026,-0.5265 -0.90237,-0.52127 -0.29159,0.007 -0.17989,0.20739 0.3614,0.64975 0.90269,0.73772 1.25018,0.65519 0.54097,-0.12848 z m 9.25895,0.52755 c 0.0899,-0.14552 0.0374,-0.26458 -0.11668,-0.26458 -0.15411,0 -0.2802,0.11906 -0.2802,0.26458 0,0.14552 0.0525,0.26458 0.11668,0.26458 0.0642,0 0.19026,-0.11906 0.2802,-0.26458 z m 18.65312,-1.28045 c 0,-0.12216 0.29766,-0.35773 0.66146,-0.52349 0.7809,-0.3558 0.95031,-1.47303 0.19844,-1.3086 -0.25466,0.0557 -0.43326,0.24301 -0.39688,0.41627 0.0802,0.38198 -0.36699,0.41987 -0.59531,0.0504 -0.0899,-0.14553 -0.0513,-0.26459 0.0858,-0.26459 0.32891,0 0.57047,-1.29487 0.27556,-1.47714 -0.12601,-0.0779 -0.22911,0.0299 -0.22911,0.23949 0,0.32154 -1.7223,0.99396 -2.7745,1.08322 -0.45203,0.0384 -0.47413,0.94818 -0.023,0.94818 0.22896,0 0.41628,0.11566 0.41628,0.25702 0,0.14136 0.38695,0.36875 0.85989,0.50531 1.12811,0.32572 1.52136,0.34482 1.52136,0.0739 z m -1.44179,-0.51413 c -0.23998,-0.23998 0.14298,-0.58667 0.64804,-0.58667 0.76629,0 0.86968,0.45296 0.13543,0.59332 -0.35868,0.0686 -0.71125,0.0656 -0.78347,-0.007 z m 6.50263,-2.61436 c 0.32927,-0.39916 0.30762,-0.41062 -0.23219,-0.12299 -0.61567,0.32806 -0.76727,0.56318 -0.36313,0.56318 0.12771,0 0.3956,-0.19809 0.59532,-0.44019 z m -3.20875,-0.47024 c 0,-0.27926 -0.50777,-0.39659 -0.65879,-0.15222 -0.0914,0.14789 0.0194,0.2689 0.2463,0.2689 0.22687,0 0.41249,-0.0525 0.41249,-0.11668 z m 4.49791,-1.33853 c 0,-0.21828 -0.10632,-0.39687 -0.23627,-0.39687 -0.12995,0 -0.30481,0.17859 -0.38857,0.39687 -0.0928,0.24175 -5.3e-4,0.39688 0.23627,0.39688 0.21372,0 0.38857,-0.1786 0.38857,-0.39688 z m 2.64584,-1.70418 c 0,-0.31217 -0.51603,-0.64611 -0.70556,-0.45658 -0.18952,0.18952 0.14442,0.70555 0.45659,0.70555 0.13693,0 0.24897,-0.11204 0.24897,-0.24897 z m -2.18833,-0.70463 c -0.0879,-0.0879 -0.31612,-0.0973 -0.50712,-0.0209 -0.21106,0.0845 -0.14837,0.14715 0.15986,0.15985 0.27891,0.0115 0.43518,-0.0511 0.34726,-0.13896 z m 4.25184,-0.95316 c 0.12118,-0.62465 -0.68903,-0.80063 -1.00114,-0.21745 -0.36753,0.68673 -0.35178,0.71897 0.32669,0.66911 0.32742,-0.024 0.63092,-0.22731 0.67445,-0.45166 z m -10.00101,-1.26824 c 0,-0.14552 -0.11907,-0.26458 -0.26459,-0.26458 -0.14552,0 -0.26458,0.11906 -0.26458,0.26458 0,0.14552 0.11906,0.26459 0.26458,0.26459 0.14552,0 0.26459,-0.11907 0.26459,-0.26459 z m 14.2875,-1.83647 c 0,-0.31217 -0.51603,-0.64611 -0.70556,-0.45658 -0.18952,0.18952 0.14442,0.70555 0.45659,0.70555 0.13693,0 0.24897,-0.11204 0.24897,-0.24897 z m -7.67292,-0.28019 c 0,-0.14553 -0.11906,-0.26459 -0.26458,-0.26459 -0.14552,0 -0.26459,0.11906 -0.26459,0.26459 0,0.14552 0.11907,0.26458 0.26459,0.26458 0.14552,0 0.26458,-0.11906 0.26458,-0.26458 z m 9.12813,-0.52917 c 0.0899,-0.14552 -0.0221,-0.26458 -0.24897,-0.26458 -0.22687,0 -0.41249,0.11906 -0.41249,0.26458 0,0.14552 0.11203,0.26458 0.24897,0.26458 0.13693,0 0.32255,-0.11906 0.41249,-0.26458 z m -4.8948,-0.26458 c 0,-0.14553 -0.0525,-0.26459 -0.11667,-0.26459 -0.0642,0 -0.19026,0.11906 -0.2802,0.26459 -0.0899,0.14552 -0.0374,0.26458 0.11668,0.26458 0.15411,0 0.28019,-0.11906 0.28019,-0.26458 z m 4.33637,-1.56322 c 0.43377,-0.36 0.58841,-1.0895 0.2277,-1.0742 -0.10914,0.005 -0.42956,0.18322 -0.71203,0.39687 -0.58794,0.4447 -1.05145,0.51564 -0.80933,0.12388 0.0899,-0.14552 0.0445,-0.26458 -0.10106,-0.26458 -0.39569,0 -0.58317,0.42654 -0.39873,0.90716 0.18907,0.49273 1.1499,0.44497 1.79345,-0.0891 z M 112.17489,90.596493 c 0,-0.145521 -0.0525,-0.264583 -0.11668,-0.264583 -0.0642,0 -0.19026,0.119062 -0.28019,0.264583 -0.0899,0.145521 -0.0374,0.264583 0.11667,0.264583 0.15411,0 0.2802,-0.119062 0.2802,-0.264583 z m 6.21771,-3.704167 c 0.0899,-0.14552 -0.0291,-0.264583 -0.26458,-0.264583 -0.23546,0 -0.35452,0.119063 -0.26459,0.264583 0.0899,0.145521 0.209,0.264584 0.26459,0.264584 0.0556,0 0.17464,-0.119063 0.26458,-0.264584 z m -0.92604,-2.645833 c 0,-0.145521 -0.11204,-0.264583 -0.24897,-0.264583 -0.13693,0 -0.32255,0.119062 -0.41249,0.264583 -0.0899,0.145521 0.0221,0.264583 0.24897,0.264583 0.22687,0 0.41249,-0.119062 0.41249,-0.264583 z m -4.81542,-2.169583 c 0.17463,-0.174625 0.3175,-0.478198 0.3175,-0.674606 0,-0.506859 -0.86737,0.01005 -0.9489,0.565494 -0.0742,0.505243 0.18968,0.550836 0.6314,0.109112 z m 7.72583,-1.27 c 0,-0.145521 -0.12608,-0.264584 -0.28019,-0.264584 -0.15411,0 -0.20662,0.119063 -0.11668,0.264584 0.0899,0.145521 0.21603,0.264583 0.2802,0.264583 0.0642,0 0.11667,-0.119062 0.11667,-0.264583 z m -2.24895,-0.556747 c -1.23238,-0.270767 -1.85853,-0.268708 -1.57428,0.0052 0.32001,0.308327 1.45387,0.484367 1.97115,0.306038 0.2504,-0.08632 0.10392,-0.201186 -0.39687,-0.311213 z m -5.14838,-0.150651 c 0.21223,0.02527 0.44541,-0.07312 0.51817,-0.218644 0.1597,-0.3194 -1.14036,-0.500062 -2.01634,-0.280202 -0.34623,0.08689 -0.6295,0.266055 -0.6295,0.398132 0,0.333074 0.84071,0.492456 1.33392,0.252889 0.22433,-0.108963 0.58151,-0.177443 0.79375,-0.152175 z m 3.81458,156.529378 c -0.0959,-0.15521 -0.10808,-0.34851 -0.027,-0.42956 0.21766,-0.21766 0.96395,0.12211 0.96395,0.43886 0,0.35911 -0.71361,0.35202 -0.93692,-0.009 z m -1.04745,-0.24698 c 0.0899,-0.14552 0.28258,-0.26458 0.4281,-0.26458 0.14552,0 0.191,0.11906 0.10106,0.26458 -0.0899,0.14552 -0.28258,0.26458 -0.4281,0.26458 -0.14552,0 -0.191,-0.11906 -0.10106,-0.26458 z m -7.80521,-0.80206 c 0,-0.14095 0.17859,-0.25627 0.39687,-0.25627 0.21828,0 0.39688,0.0468 0.39688,0.10398 0,0.0572 -0.1786,0.17252 -0.39688,0.25628 -0.21828,0.0838 -0.39687,0.037 -0.39687,-0.10399 z m 3.04271,0.008 c -0.0899,-0.14552 -0.0445,-0.26458 0.10106,-0.26458 0.14552,0 0.33817,0.11906 0.4281,0.26458 0.0899,0.14552 0.0445,0.26458 -0.10106,0.26458 -0.14552,0 -0.33817,-0.11906 -0.4281,-0.26458 z m 13.62604,-1.07395 c 0,-0.15411 0.11906,-0.20661 0.26458,-0.11667 0.14552,0.0899 0.26458,0.21602 0.26458,0.28019 0,0.0642 -0.11906,0.11668 -0.26458,0.11668 -0.14552,0 -0.26458,-0.12609 -0.26458,-0.2802 z m -13.49375,-1.04272 c 0,-0.14552 0.11906,-0.26458 0.26458,-0.26458 0.14552,0 0.26458,0.11906 0.26458,0.26458 0,0.14553 -0.11906,0.26459 -0.26458,0.26459 -0.14552,0 -0.26458,-0.11906 -0.26458,-0.26459 z m 1.78042,-0.15985 c -0.1061,-0.10611 -0.19292,-0.37549 -0.19292,-0.59862 0,-0.29781 0.0783,-0.32742 0.29435,-0.11134 0.16189,0.16189 0.2487,0.43127 0.19292,0.59862 -0.0558,0.16735 -0.18824,0.21745 -0.29435,0.11134 z m 18.06333,-0.69388 c 0,-0.48232 0.46906,-0.88207 0.72946,-0.62167 0.0908,0.0908 -0.0362,0.36636 -0.28219,0.61236 -0.41247,0.41247 -0.44727,0.41319 -0.44727,0.009 z m 0.98837,-1.15651 c -0.23851,-0.2385 0.0899,-0.91908 0.36227,-0.75075 0.13027,0.0805 0.23686,0.31796 0.23686,0.52765 0,0.38962 -0.31523,0.507 -0.59913,0.2231 z m 1.92204,-2.48767 c 0.70766,-0.55354 1.05834,-0.65875 1.05834,-0.3175 0,0.39492 -0.63263,0.84669 -1.1774,0.84078 -0.5072,-0.006 -0.49948,-0.0395 0.11906,-0.52328 z M 107.2801,184.64289 c -2.58694,-0.47899 -3.48952,-0.74853 -5.15938,-1.54074 -0.80036,-0.37971 -1.58178,-0.69154 -1.73649,-0.69297 -0.498923,-0.005 -3.918753,-2.16807 -5.038353,-3.18741 -0.59747,-0.54396 -1.33256,-1.12081 -1.63354,-1.2819 -0.30099,-0.16108 -0.73172,-0.66267 -0.9572,-1.11463 -0.47187,-0.94591 -0.4487,-0.93366 1.69267,0.89406 1.7949,1.53201 1.85247,1.56877 2.23028,1.42379 0.44261,-0.16985 0.94426,0.311 0.77759,0.74534 -0.12883,0.33573 1.37919,1.19526 2.09704,1.19526 0.2171,0 0.453263,0.15255 0.524813,0.339 0.19419,0.50604 3.13837,1.88157 3.33754,1.55931 0.32316,-0.52288 1.50363,-0.63281 1.88328,-0.17537 0.28832,0.34741 0.29322,0.47547 0.0245,0.64153 -0.41782,0.25822 1.38929,0.74692 4.47077,1.20904 2.06953,0.31035 2.13286,0.33691 0.79375,0.33293 -0.80037,-0.002 -2.28865,-0.15863 -3.30729,-0.34724 z m 7.01146,0.23244 c 2.38018,-0.16923 8.00797,-1.47037 8.66804,-2.00405 0.18352,-0.14837 0.71931,-0.47659 1.19063,-0.72936 0.49968,-0.26798 0.85695,-0.66711 0.85695,-0.95735 0,-0.27377 0.11906,-0.58523 0.26459,-0.69215 0.14552,-0.10691 0.009,-0.19621 -0.30243,-0.19843 -0.57041,-0.004 -0.8882,0.45331 -0.8882,1.2784 0,0.29406 -0.43913,0.60139 -1.29228,0.9044 -1.54815,0.54985 -1.63914,0.55701 -1.46974,0.11555 0.23405,-0.60993 -0.99554,-1.45941 -2.23741,-1.54574 -0.97998,-0.0681 -1.1953,0.007 -1.36842,0.47454 -0.15936,0.43079 -0.36479,0.52493 -0.91569,0.41962 -0.43951,-0.084 -0.79489,10e-4 -0.9323,0.22352 -0.12213,0.19761 -0.30502,0.27632 -0.40643,0.17491 -0.10141,-0.10141 -0.0338,-0.36586 0.1503,-0.58765 0.27965,-0.33697 0.25323,-0.40261 -0.16074,-0.39922 -0.27247,0.002 -0.67401,0.12129 -0.89229,0.26458 -0.34758,0.22817 -0.34869,0.29151 -0.009,0.50993 0.31074,0.19977 0.23697,0.30678 -0.37081,0.53785 -1.00269,0.38122 -2.10742,0.0118 -2.21831,-0.74182 -0.0722,-0.49055 -0.25601,-0.57459 -1.25677,-0.57459 -0.64865,0 -1.17223,-0.12515 -1.17223,-0.2802 0,-0.15411 -0.13681,-0.19564 -0.30404,-0.0923 -0.4087,0.25259 -3.40012,0.31834 -3.40012,0.0747 0,-0.16254 -1.48131,-1.02516 -1.76044,-1.02516 -0.0504,0 -0.0917,0.1786 -0.0917,0.39688 0,0.21828 0.11906,0.39687 0.26459,0.39687 0.14552,0 0.26458,0.1786 0.26458,0.39688 0,0.46711 -0.11392,0.48773 -0.73119,0.1324 -0.25269,-0.14545 -0.79402,-0.38336 -1.20296,-0.52867 -0.40894,-0.14531 -0.6686,-0.38543 -0.57703,-0.5336 0.0916,-0.14816 0.3071,-0.18844 0.47894,-0.0895 0.17185,0.0989 -0.0361,-0.15118 -0.46221,-0.55582 -0.73498,-0.69802 -0.79272,-0.71099 -1.12744,-0.25323 -0.33722,0.46117 -0.37086,0.45669 -0.76171,-0.10132 -0.452113,-0.64548 -0.598403,-0.68793 -1.155643,-0.33533 -0.30272,0.19156 -0.31419,0.3195 -0.0565,0.63002 0.27112,0.32667 0.21494,0.38339 -0.34755,0.3509 -0.70937,-0.041 -0.86413,-0.40157 -0.3801,-0.8856 0.2119,-0.2119 0.13984,-0.33927 -0.26458,-0.46762 -0.30569,-0.097 -0.5558,-0.29447 -0.5558,-0.43878 0,-0.1443 -0.11906,-0.18878 -0.26458,-0.0988 -0.14553,0.0899 -0.27832,0.008 -0.2951,-0.18283 -0.0168,-0.19049 -0.0582,-0.4654 -0.092,-0.61092 -0.0338,-0.14552 -0.0814,-0.38365 -0.10582,-0.52917 -0.0244,-0.14552 -0.16385,-0.086 -0.30991,0.13229 -0.22953,0.34303 -0.31952,0.32611 -0.66325,-0.1247 -0.21872,-0.28687 -0.33926,-0.67382 -0.26786,-0.85989 0.21205,-0.55258 -0.13805,-1.13207 -0.68392,-1.13207 -0.64529,0 -0.91862,0.67725 -0.48446,1.20038 0.47602,0.57357 0.19241,0.70967 -0.48708,0.23373 -0.69854,-0.48927 -0.74483,-1.12072 -0.11633,-1.58703 0.4372,-0.32438 0.43351,-0.36616 -0.0662,-0.74932 -0.29104,-0.22318 -0.67193,-0.35567 -0.84642,-0.29441 -0.18365,0.0645 -0.25762,-0.044 -0.17565,-0.25766 0.11796,-0.30737 -0.006,-0.31706 -0.74108,-0.058 -0.48547,0.17106 -0.91418,0.32508 -0.95269,0.34226 -0.0385,0.0172 0.25094,0.60547 0.6432,1.3073 0.85317,1.52649 0.41718,1.36218 -0.70206,-0.26458 -0.90255,-1.31182 -0.96314,-1.50726 -0.4003,-1.29128 0.27539,0.10567 0.39688,-0.0183 0.39688,-0.40518 0,-0.31915 0.16967,-0.55747 0.39687,-0.55747 0.21828,0 0.39688,-0.1786 0.39688,-0.39688 0,-0.21828 -0.20836,-0.39503 -0.46303,-0.39278 -0.25466,0.002 -0.91002,-0.50376 -1.45636,-1.12448 -0.8981,-1.02035 -1.02646,-1.08595 -1.33857,-0.68404 -0.30558,0.39349 -0.44974,0.24157 -1.25531,-1.32291 -0.69051,-1.341 -0.91017,-2.09652 -0.91039,-3.13125 -1.7e-4,-0.75009 -0.0766,-1.24038 -0.16981,-1.08952 -0.47694,0.77169 -1.11142,-3.65159 -1.10925,-7.73314 0.002,-3.64015 0.0518,-4.0057 0.97454,-7.14375 1.23722,-4.20756 2.36836,-6.5103 4.64485,-9.45588 4.00396,-5.18076 9.15193,-8.55106 15.303883,-10.01922 2.37815,-0.56755 3.4964,-0.68092 6.81382,-0.6908 5.4734,-0.0163 8.79539,0.7157 13.01188,2.86722 5.17881,2.64255 9.86019,7.30577 12.45217,12.40388 1.05336,2.07182 2.18919,5.76549 2.5081,8.1562 0.58369,4.37571 0.17303,10.48946 -0.86172,12.82867 -0.28589,0.64631 -0.5198,1.27199 -0.5198,1.3904 0,0.1184 -0.46334,1.2046 -1.02964,2.41376 -2.07347,4.42728 -5.33429,8.27151 -9.20362,10.85028 -2.74049,1.82643 -5.03958,3.12215 -5.53986,3.12215 -0.16456,0 -0.86245,0.24915 -1.55086,0.55367 -1.50603,0.66619 -5.27407,1.31358 -7.28227,1.25118 -1.36833,-0.0425 -1.38413,-0.0503 -0.26459,-0.12987 z m 8.53269,-4.09604 c -0.474,-0.474 -1.24779,0.23374 -0.81962,0.74965 0.26752,0.32235 0.36864,0.31768 0.71953,-0.0332 0.31068,-0.31068 0.3346,-0.48193 0.10009,-0.71644 z m -9.3981,0.40913 c -0.0879,-0.0879 -0.31612,-0.0973 -0.50712,-0.0209 -0.21106,0.0845 -0.14837,0.14716 0.15985,0.15986 0.27892,0.0115 0.43519,-0.0511 0.34727,-0.13897 z m 13.72269,-0.50129 c 0.59693,-0.51335 0.66526,-0.6612 0.30574,-0.66146 -0.25466,-1.7e-4 -0.46302,0.10486 -0.46302,0.2334 0,0.12855 -0.23813,0.296 -0.52917,0.37211 -0.29104,0.0761 -0.52917,0.26859 -0.52917,0.42774 0,0.45919 0.38699,0.34084 1.21562,-0.37179 z m -16.95832,-0.39719 c -0.0899,-0.14553 -0.27556,-0.26459 -0.41249,-0.26459 -0.13693,0 -0.24897,0.11906 -0.24897,0.26459 0,0.14552 0.18562,0.26458 0.41249,0.26458 0.22687,0 0.3389,-0.11906 0.24897,-0.26458 z m 19.294,-1.23242 c 0.10807,-0.28163 -0.10384,-0.35021 -0.9111,-0.29489 -0.57855,0.0396 -1.05209,0.16139 -1.05231,0.27053 -2.1e-4,0.10915 0.11868,0.19844 0.2642,0.19844 0.14552,0 0.26458,0.17604 0.26458,0.3912 0,0.31892 0.11954,0.33674 0.6469,0.0965 0.3558,-0.16211 0.71028,-0.4599 0.78773,-0.66174 z m -0.17234,-1.72761 c -0.16354,-0.4906 -0.73312,-0.57197 -0.73312,-0.10473 0,0.23041 0.18851,0.41892 0.41892,0.41892 0.23041,0 0.3718,-0.14139 0.3142,-0.31419 z m -40.949793,-8.13084 c 0,-0.13362 0.0681,-0.42052 0.15143,-0.63755 0.0965,-0.25138 -0.0538,-0.45976 -0.41401,-0.57408 -0.31099,-0.0987 -0.67953,-0.43688 -0.81897,-0.7515 -0.22445,-0.50642 -0.23742,-0.48991 -0.11305,0.14388 0.22721,1.15782 0.63219,2.0622 0.92347,2.0622 0.14912,0 0.27113,-0.10933 0.27113,-0.24295 z m -2.12072,-6.96695 c 0.002,-0.10914 -0.11501,-0.19844 -0.26053,-0.19844 -0.14552,0 -0.26276,0.26789 -0.26053,0.59532 0.003,0.48139 0.0531,0.51936 0.26053,0.19843 0.14107,-0.21828 0.25831,-0.48617 0.26053,-0.59531 z m 90.514203,21.23281 c -0.008,-0.21828 0.10087,-0.57547 0.24194,-0.79375 0.31256,-0.48365 0.31256,-0.0659 0,0.66146 -0.14994,0.34892 -0.23235,0.39398 -0.24194,0.13229 z m -66.01499,-0.75945 c -0.0812,-0.13141 0.0296,-0.38606 0.2463,-0.56588 0.32032,-0.26585 0.39396,-0.24964 0.39396,0.0867 0,0.49396 -0.43153,0.81692 -0.64026,0.47919 z m 8.84234,-0.56346 c 0,-0.14552 0.12609,-0.26459 0.2802,-0.26459 0.15411,0 0.20662,0.11907 0.11668,0.26459 -0.0899,0.14552 -0.21603,0.26458 -0.2802,0.26458 -0.0642,0 -0.11668,-0.11906 -0.11668,-0.26458 z m 57.85948,-1.32292 c 0.30121,-1.62893 0.62901,-2.38294 0.47116,-1.08377 -0.0779,0.64086 -0.25426,1.35523 -0.39199,1.5875 -0.17254,0.29098 -0.19716,0.13433 -0.0792,-0.50373 z m -88.180803,-8.13999 c -0.35918,-0.23983 -0.89951,-1.23974 -0.89951,-1.6646 0,-0.54325 0.72315,0.22556 1.02404,1.0887 0.29724,0.85266 0.29632,0.85691 -0.12453,0.5759 z m 90.667213,-7.36019 c 0.0127,-0.30822 0.0754,-0.37092 0.15986,-0.15985 0.0764,0.191 0.067,0.4192 -0.0209,0.50712 -0.0879,0.0879 -0.15045,-0.0684 -0.13896,-0.34727 z m -28.99286,-17.66853 c -0.43662,-0.19359 -0.95816,-0.54996 -1.15898,-0.79193 -0.49032,-0.5908 -0.26196,-2.14449 0.57662,-3.92302 1.1499,-2.43879 5.85041,-12.5928 8.08886,-17.47351 1.18299,-2.57937 2.15089,-4.80477 2.15089,-4.94532 0,-0.42817 -0.42437,-0.5615 -2.70398,-0.8495 -2.99884,-0.37887 -3.71115,-0.44338 -8.36068,-0.75719 -6.07199,-0.40981 -7.43314,-0.83752 -8.15373,-2.56214 -0.56427,-1.35049 -0.44461,-2.52808 0.38195,-3.75879 0.40849,-0.60824 4.85571,-5.41842 9.88271,-10.6893 5.027,-5.270872 10.42868,-10.952624 12.00375,-12.626114 5.84387,-6.209072 20.13989,-20.726685 21.26355,-21.593148 1.30002,-1.002459 2.85109,-1.210646 3.58107,-0.480663 0.53227,0.532267 0.53129,1.888966 -0.002,3.165975 -0.71747,1.717159 -9.94053,20.828984 -13.42996,27.829285 -1.82932,3.669875 -3.22771,6.733255 -3.10753,6.807525 0.19149,0.11836 9.03234,0.99353 10.07638,0.99748 0.21828,8e-4 1.28984,0.11436 2.38125,0.25229 1.0914,0.13793 2.80715,0.30252 3.81278,0.36577 2.46498,0.15502 3.65708,0.75766 3.96521,2.00455 0.53774,2.17604 0.22016,2.51468 -20.06613,21.39677 -5.08115,4.72943 -9.55283,8.89661 -9.93708,9.26042 -1.62849,1.54182 -7.09598,6.60098 -8.08081,7.47729 -1.27661,1.13596 -2.09524,1.36708 -3.16387,0.89327 z M 49.487237,146.75431 c 0.0102,-0.10914 0.12092,-0.43657 0.24598,-0.72761 0.2015,-0.46891 0.22952,-0.44631 0.24599,0.19844 0.0102,0.40018 -0.10046,0.7276 -0.24599,0.7276 -0.14552,0 -0.25621,-0.0893 -0.24598,-0.19843 z m 83.060573,-43.7224 c 0,-0.14552 0.11906,-0.26458 0.26458,-0.26458 0.14552,0 0.26458,0.11906 0.26458,0.26458 0,0.14552 -0.11906,0.26458 -0.26458,0.26458 -0.14552,0 -0.26458,-0.11906 -0.26458,-0.26458 z m 2.54406,-2.23309 c 0.14651,-0.38178 1.23826,-1.206494 1.59717,-1.206494 0.10511,0 -0.1511,0.357188 -0.56936,0.793754 -0.81505,0.85073 -1.26526,1.03152 -1.02781,0.41274 z m 1.95385,-1.627639 c 0,-0.08611 1.06582,-1.194334 2.36848,-2.462723 1.30267,-1.268389 2.49329,-2.634435 2.64584,-3.035663 0.97587,-2.566741 -0.39508,-4.84347 -4.22057,-7.009066 -1.43474,-0.812202 -3.72983,-1.888381 -4.03911,-1.893954 -0.17958,-0.0032 -0.62417,-0.248824 -0.98797,-0.54575 l -0.66146,-0.539869 0.66146,0.182985 c 1.14545,0.316876 5.37923,2.366516 6.90681,3.343701 0.84598,0.541163 1.80941,1.456447 2.27846,2.16458 0.71288,1.076254 0.80292,1.41731 0.73313,2.777017 -0.10317,2.010132 -0.58487,2.89143 -2.43028,4.446376 -0.8314,0.700545 -1.8113,1.601141 -2.17755,2.001324 -0.627,0.685093 -1.07724,0.923763 -1.07724,0.571042 z" />
  </g>
</svg>
