<?xml version="1.0" encoding="UTF-8" standalone="no"?>
<!-- Created with Inkscape (http://www.inkscape.org/) -->

<svg
   width="210mm"
   height="297mm"
   viewBox="0 0 210 297"
   version="1.1"
   id="svg1"
   inkscape:version="1.4.2 (ebf0e940, 2025-05-08)"
   sodipodi:docname="Clarity Yellow.svg"
   xmlns:inkscape="http://www.inkscape.org/namespaces/inkscape"
   xmlns:sodipodi="http://sodipodi.sourceforge.net/DTD/sodipodi-0.dtd"
   xmlns="http://www.w3.org/2000/svg"
   xmlns:svg="http://www.w3.org/2000/svg">
  <sodipodi:namedview
     id="namedview1"
     pagecolor="#ffffff"
     bordercolor="#000000"
     borderopacity="0.25"
     inkscape:showpageshadow="2"
     inkscape:pageopacity="0.0"
     inkscape:pagecheckerboard="0"
     inkscape:deskcolor="#d1d1d1"
     inkscape:document-units="mm"
     inkscape:zoom="0.30767648"
     inkscape:cx="414.39631"
     inkscape:cy="994.55115"
     inkscape:window-width="1472"
     inkscape:window-height="895"
     inkscape:window-x="0"
     inkscape:window-y="61"
     inkscape:window-maximized="0"
     inkscape:current-layer="layer1" />
  <defs
     id="defs1" />
  <g
     inkscape:label="Layer 1"
     inkscape:groupmode="layer"
     id="layer1">
    <path
       style="display:inline;fill:#f7cd1c;stroke-width:0.264583"
       d="m 100.30423,206.88409 c -6.765203,-0.4249 -14.920203,-2.5347 -21.828103,-5.6471 -11.786,-5.3103 -22.5955,-14.581 -28.917,-24.8004 -4.2046,-6.7972 -6.9,-14.2571 -8.293,-22.9521 -0.6701,-4.1828 -0.679,-14.9538 -0.016,-19.1452 2.4441,-15.4477 9.8656,-28.6814 21.2284,-37.853402 8.9073,-7.19 20.6675,-11.7147 32.2647,-12.4138 10.750403,-0.648 22.427403,0.9924 25.256203,3.5481 1.1424,1.0321 1.7665,2.7598 1.4955,4.1397 -0.3445,1.7535 -3.3073,4.7325 -6.1245,6.1579 -1.329,0.6724 -1.8804,0.7646 -6.4809,1.0837 -14.444903,1.001802 -24.570703,4.734202 -33.456303,12.332302 -10.0754,8.6154 -15.4509,20.8758 -14.8709,33.9176 0.4592,10.3282 4.1375,19.2332 11.2526,27.242 6.7894,7.6423 17.4034,13.1144 28.621403,14.7559 3.3271,0.4869 10.9679,0.4193 14.0229,-0.124 12.5823,-2.2376 22.9337,-8.0336 30.5474,-17.1044 7.2061,-8.585 10.9685,-18.3545 11.9219,-30.9562 0.093,-1.2369 0.3855,-2.7398 0.6487,-3.3397 1.1531,-2.6276 4.3806,-4.8679 6.9967,-4.8566 2.508,0.011 4.9309,1.7046 6.2527,4.371 0.6013,1.2129 0.6488,1.591 0.6294,5.0159 -0.017,2.9432 -0.1933,4.6554 -0.8598,8.3344 -3.0743,16.9694 -8.9481,28.9349 -19.3599,39.438 -7.9558,8.0256 -18.5877,14.1838 -29.1727,16.8974 -6.8985,1.7686 -14.2521,2.4306 -21.7596,1.959 z"
       id="path10" />
  </g>
</svg>
